<?xml version="1.0" encoding="UTF-8" standalone="no"?>
<svg
   xmlns:dc="http://purl.org/dc/elements/1.1/"
   xmlns:cc="http://creativecommons.org/ns#"
   xmlns:rdf="http://www.w3.org/1999/02/22-rdf-syntax-ns#"
   xmlns:svg="http://www.w3.org/2000/svg"
   xmlns="http://www.w3.org/2000/svg"
   version="1.1"
   id="svg5043"
   viewBox="0 0 182.74454 64.683336"
   height="64.683334"
   width="182.74454">
  <defs
     id="defs5045" />
  <metadata
     id="metadata5048">
    <rdf:RDF>
      <cc:Work
         rdf:about="">
        <dc:format>image/svg+xml</dc:format>
        <dc:type
           rdf:resource="http://purl.org/dc/dcmitype/StillImage" />
        <dc:title></dc:title>
      </cc:Work>
    </rdf:RDF>
  </metadata>
  <g
     transform="translate(-238.98405,-584.78442)"
     id="layer1">
    <g
       transform="matrix(0.76873322,0,0,0.76873322,-278.47969,358.37264)"
       style="font-style:normal;font-variant:normal;font-weight:normal;font-stretch:normal;font-size:62.5px;line-height:0%;font-family:'Open Sans';-inkscape-font-specification:'Open Sans';text-align:center;letter-spacing:0px;word-spacing:0px;text-anchor:middle;fill:#000000;fill-opacity:1;stroke:none;stroke-width:1px;stroke-linecap:butt;stroke-linejoin:miter;stroke-opacity:1"
       id="g4479">
      <path
         d="m 741.66583,335.95886 q 0,-1.89209 -0.30517,-3.72314 -0.30518,-1.89209 -0.91553,-3.72315 -0.61035,-1.83105 -1.40381,-3.60107 l -6.5918,6.5918 q 1.52588,5.12695 0,10.2539 l 6.53077,6.53076 q 2.86865,-5.79834 2.68554,-12.3291 z m -14.70947,-23.13232 q -5.24902,-2.56348 -11.04736,-2.68555 -3.17383,-0.061 -6.34766,0.61035 -3.11279,0.67139 -5.98144,2.0752 l 6.53076,6.59179 q 2.74658,-0.79345 5.5542,-0.73242 1.2207,0 2.38037,0.18311 1.15967,0.1831 2.31933,0.54931 l 6.5918,-6.59179 z m -0.061,47.54638 -6.53076,-6.53076 q -5.12695,1.52588 -10.2539,0 l -6.53076,6.53076 q 5.49316,2.68555 11.65771,2.68555 6.16455,0 11.65771,-2.68555 z m -28.86962,-28.86962 -6.53077,-6.5918 q -2.74658,5.49316 -2.74658,11.71875 0,6.16455 2.74658,11.65771 l 6.53077,-6.53076 q -1.52588,-5.12695 0,-10.2539 z"
         style="font-style:normal;font-variant:normal;font-weight:normal;font-stretch:normal;line-height:0%;font-family:tuerme;-inkscape-font-specification:tuerme;text-align:start;text-anchor:start"
         id="path4481" />
      <path
         d="m 696.01154,310.14099 11.59668,11.59668 -2.38038,2.44141 0.48829,0.48828 -2.44141,2.38037 -0.48828,-0.48828 -2.44141,2.4414 -11.59668,-11.59668 2.44141,-2.4414 -1.46485,-1.40381 2.44141,-2.44141 1.46484,1.46485 2.38038,-2.44141 z"
         style="font-style:normal;font-variant:normal;font-weight:normal;font-stretch:normal;line-height:0%;font-family:tuerme;-inkscape-font-specification:tuerme;text-align:start;text-anchor:start"
         id="path4483" />
      <path
         d="m 741.72687,317.40417 -11.59668,11.59668 -2.44141,-2.4414 -0.48828,0.48828 -2.44141,-2.38037 0.48829,-0.48828 -2.38038,-2.44141 11.59668,-11.59668 2.38038,2.44141 1.46484,-1.46485 2.44141,2.44141 -1.46485,1.40381 2.44141,2.4414 z"
         style="font-style:normal;font-variant:normal;font-weight:normal;font-stretch:normal;line-height:0%;font-family:tuerme;-inkscape-font-specification:tuerme;text-align:start;text-anchor:start"
         id="path4485" />
      <path
         d="m 734.46368,363.05847 -11.59668,-11.59668 2.38038,-2.4414 -0.48829,-0.42725 2.44141,-2.44141 0.48828,0.48828 2.44141,-2.4414 11.59668,11.59668 -2.44141,2.4414 1.46485,1.46485 -2.44141,2.38037 -1.46484,-1.46484 -2.38038,2.4414 z"
         style="font-style:normal;font-variant:normal;font-weight:normal;font-stretch:normal;line-height:0%;font-family:tuerme;-inkscape-font-specification:tuerme;text-align:start;text-anchor:start"
         id="path4487" />
      <path
         d="m 688.74835,355.79529 11.59668,-11.59668 2.44141,2.4414 0.48828,-0.48828 2.44141,2.44141 -0.48829,0.42725 2.38038,2.4414 -11.59668,11.59668 -2.38038,-2.4414 -1.46484,1.46484 -2.44141,-2.38037 1.46485,-1.46485 -2.44141,-2.4414 z"
         style="font-style:normal;font-variant:normal;font-weight:normal;font-stretch:normal;line-height:0%;font-family:tuerme;-inkscape-font-specification:tuerme;text-align:start;letter-spacing:-4px;text-anchor:start"
         id="path4489" />
      <path
         d="m 757.53278,358.96912 q 2.86865,0 5.00488,-0.48829 l 0,2.44141 q -2.19727,0.73242 -5.06592,0.73242 -4.39453,0 -6.50024,-2.34985 -2.0752,-2.34985 -2.0752,-7.38525 l 0,-21.42334 -4.91333,0 0,-1.77002 4.91333,-1.37329 1.52588,-7.50733 1.5564,0 0,8.02612 9.7351,0 0,2.62452 -9.7351,0 0,20.99609 q 0,3.8147 1.34277,5.64575 1.34277,1.83106 4.21143,1.83106 z"
         style="font-style:normal;font-variant:normal;font-weight:300;font-stretch:normal;font-size:62.5px;line-height:0%;font-family:'Open Sans';-inkscape-font-specification:'Open Sans, Light';text-align:start;writing-mode:lr-tb;text-anchor:start"
         id="path4491" />
      <path
         d="m 768.39484,327.8717 0,21.48438 q 0,5.00488 2.10571,7.2937 2.10571,2.2583 6.53076,2.2583 5.92041,0 8.69751,-2.99072 2.80762,-2.99072 2.80762,-9.73511 l 0,-18.31055 2.99072,0 0,33.17261 -2.56348,0 -0.54931,-4.57764 -0.18311,0 q -3.23486,5.18799 -11.50512,5.18799 -11.32203,0 -11.32203,-12.11548 l 0,-21.66748 2.99073,0 z m 2.50244,-9.2163 q 0,-1.40381 0.45776,-2.01416 0.48828,-0.61036 1.46485,-0.61036 1.95312,0 1.95312,2.62452 0,2.62451 -1.95312,2.62451 -1.92261,0 -1.92261,-2.62451 z m 11.6272,0 q 0,-1.40381 0.45776,-2.01416 0.48828,-0.61036 1.46484,-0.61036 1.95313,0 1.95313,2.62452 0,2.62451 -1.95313,2.62451 -1.9226,0 -1.9226,-2.62451 z"
         style="font-style:normal;font-variant:normal;font-weight:300;font-stretch:normal;font-size:62.5px;line-height:0%;font-family:'Open Sans';-inkscape-font-specification:'Open Sans, Light';text-align:start;writing-mode:lr-tb;text-anchor:start"
         id="path4493" />
      <path
         d="m 811.69708,327.23083 q 2.10572,0 4.5166,0.42725 l -0.57983,2.89917 q -2.0752,-0.5188 -4.30298,-0.5188 -4.24194,0 -6.95801,3.60108 -2.71606,3.60107 -2.71606,9.09423 l 0,18.31055 -3.02124,0 0,-33.17261 2.56348,0 0.30517,5.98145 0.21362,0 q 2.04468,-3.66211 4.36402,-5.12695 2.31933,-1.49537 5.61523,-1.49537 z"
         style="font-style:normal;font-variant:normal;font-weight:300;font-stretch:normal;font-size:62.5px;line-height:0%;font-family:'Open Sans';-inkscape-font-specification:'Open Sans, Light';text-align:start;writing-mode:lr-tb;text-anchor:start"
         id="path4495" />
      <path
         d="m 860.37042,361.04431 0,-21.75903 q 0,-4.8523 -1.89209,-7.08008 -1.89209,-2.22778 -5.79834,-2.22778 -5.09643,0 -7.53784,2.80761 -2.44141,2.80762 -2.44141,8.81958 l 0,19.4397 -3.08227,0 0,-22.67456 q 0,-8.39233 -7.69043,-8.39233 -5.21851,0 -7.59888,3.05175 -2.38037,3.02125 -2.38037,9.70459 l 0,18.31055 -3.02124,0 0,-33.17261 2.50244,0 0.64087,4.54712 0.18311,0 q 1.37329,-2.47192 3.90625,-3.81469 2.53296,-1.3733 5.58471,-1.3733 7.84302,0 10.0708,5.8899 l 0.12208,0 q 1.61743,-2.83814 4.33349,-4.36402 2.74658,-1.52588 6.22559,-1.52588 5.43213,0 8.14819,2.89917 2.71607,2.89917 2.71607,9.21631 l 0,21.698 -2.99073,0 z"
         style="font-style:normal;font-variant:normal;font-weight:300;font-stretch:normal;font-size:62.5px;line-height:0%;font-family:'Open Sans';-inkscape-font-specification:'Open Sans, Light';text-align:start;writing-mode:lr-tb;text-anchor:start"
         id="path4497" />
      <path
         d="m 883.50055,361.65466 q -7.23267,0 -11.2915,-4.45556 -4.02832,-4.45557 -4.02832,-12.48169 0,-7.93457 3.90625,-12.69532 3.90625,-4.79126 10.52856,-4.79126 5.85937,0 9.24683,4.08936 3.38745,4.08936 3.38745,11.1084 l 0,2.44141 -23.89527,0 q 0.061,6.83593 3.17383,10.43701 3.14331,3.60107 8.97217,3.60107 2.83813,0 4.97436,-0.39673 2.16675,-0.39673 5.46265,-1.70898 l 0,2.74658 q -2.80762,1.2207 -5.18799,1.64795 -2.38037,0.45776 -5.24902,0.45776 z m -0.88501,-31.73828 q -4.79126,0 -7.69043,3.17383 -2.89917,3.14331 -3.38745,9.09424 l 20.50781,0 q 0,-5.76782 -2.50244,-9.00269 -2.50244,-3.26538 -6.92749,-3.26538 z"
         style="font-style:normal;font-variant:normal;font-weight:300;font-stretch:normal;font-size:62.5px;line-height:0%;font-family:'Open Sans';-inkscape-font-specification:'Open Sans, Light';text-align:start;writing-mode:lr-tb;text-anchor:start"
         id="path4499" />
    </g>
  </g>
</svg>
