<?xml version="1.0" encoding="UTF-8" standalone="no"?>
<svg
   xmlns:dc="http://purl.org/dc/elements/1.1/"
   xmlns:cc="http://creativecommons.org/ns#"
   xmlns:rdf="http://www.w3.org/1999/02/22-rdf-syntax-ns#"
   xmlns:svg="http://www.w3.org/2000/svg"
   xmlns="http://www.w3.org/2000/svg"
   version="1.1"
   id="svg3625"
   viewBox="0 0 121.16574 64.683336"
   height="64.683334"
   width="121.16574">
  <defs
     id="defs3627" />
  <metadata
     id="metadata3630">
    <rdf:RDF>
      <cc:Work
         rdf:about="">
        <dc:format>image/svg+xml</dc:format>
        <dc:type
           rdf:resource="http://purl.org/dc/dcmitype/StillImage" />
        <dc:title></dc:title>
      </cc:Work>
    </rdf:RDF>
  </metadata>
  <g
     transform="translate(-8.0850502,-384.97739)"
     id="layer1">
    <g
       transform="matrix(0.76873322,0,0,0.76873322,-256.32451,158.56561)"
       id="g4365"
       style="font-style:normal;font-variant:normal;font-weight:normal;font-stretch:normal;font-size:62.5px;line-height:0%;font-family:'Open Sans';-inkscape-font-specification:'Open Sans';text-align:center;letter-spacing:0px;word-spacing:0px;text-anchor:middle;fill:#ffffff;fill-opacity:1;stroke:none;stroke-width:1px;stroke-linecap:butt;stroke-linejoin:miter;stroke-opacity:1">
      <path
         id="path4367"
         style="font-style:normal;font-variant:normal;font-weight:normal;font-stretch:normal;line-height:0%;font-family:tuerme;-inkscape-font-specification:tuerme;text-align:start;text-anchor:start;fill:#999999"
         d="m 412.48248,335.95886 q 0,-1.89209 -0.30517,-3.72314 -0.30518,-1.89209 -0.91553,-3.72315 -0.61035,-1.83105 -1.40381,-3.60107 l -6.5918,6.5918 q 1.52588,5.12695 0,10.2539 l 6.53077,6.53076 q 2.86865,-5.79834 2.68554,-12.3291 z m -14.70947,-23.13232 q -5.24902,-2.56348 -11.04736,-2.68555 -3.17383,-0.061 -6.34766,0.61035 -3.11279,0.67139 -5.98144,2.0752 l 6.53076,6.59179 q 2.74658,-0.79345 5.5542,-0.73242 1.2207,0 2.38037,0.18311 1.15967,0.1831 2.31933,0.54931 l 6.5918,-6.59179 z m -0.061,47.54638 -6.53077,-6.53076 q -5.12695,1.52588 -10.2539,0 l -6.53076,6.53076 q 5.49316,2.68555 11.65771,2.68555 6.16455,0 11.65772,-2.68555 z m -28.86963,-28.86962 -6.53077,-6.5918 q -2.74658,5.49316 -2.74658,11.71875 0,6.16455 2.74658,11.65771 l 6.53077,-6.53076 q -1.52588,-5.12695 0,-10.2539 z" />
      <path
         id="path4369"
         style="font-style:normal;font-variant:normal;font-weight:normal;font-stretch:normal;line-height:0%;font-family:tuerme;-inkscape-font-specification:tuerme;text-align:start;text-anchor:start;fill:#999999"
         d="m 366.82819,310.14099 11.59668,11.59668 -2.38038,2.44141 0.48829,0.48828 -2.44141,2.38037 -0.48828,-0.48828 -2.44141,2.4414 -11.59668,-11.59668 2.44141,-2.4414 -1.46485,-1.40381 2.44141,-2.44141 1.46484,1.46485 2.38038,-2.44141 z" />
      <path
         id="path4371"
         style="font-style:normal;font-variant:normal;font-weight:normal;font-stretch:normal;line-height:0%;font-family:tuerme;-inkscape-font-specification:tuerme;text-align:start;text-anchor:start;fill:#999999"
         d="m 412.54352,317.40417 -11.59668,11.59668 -2.44141,-2.4414 -0.48828,0.48828 -2.44141,-2.38037 0.48829,-0.48828 -2.38038,-2.44141 11.59668,-11.59668 2.38038,2.44141 1.46484,-1.46485 2.44141,2.44141 -1.46485,1.40381 2.44141,2.4414 z" />
      <path
         id="path4373"
         style="font-style:normal;font-variant:normal;font-weight:normal;font-stretch:normal;line-height:0%;font-family:tuerme;-inkscape-font-specification:tuerme;text-align:start;text-anchor:start;fill:#999999"
         d="m 405.28033,363.05847 -11.59668,-11.59668 2.38038,-2.4414 -0.48829,-0.42725 2.44141,-2.44141 0.48828,0.48828 2.44141,-2.4414 11.59668,11.59668 -2.44141,2.4414 1.46485,1.46485 -2.44141,2.38037 -1.46484,-1.46484 -2.38038,2.4414 z" />
      <path
         id="path4375"
         style="font-style:normal;font-variant:normal;font-weight:normal;font-stretch:normal;line-height:0%;font-family:tuerme;-inkscape-font-specification:tuerme;text-align:start;letter-spacing:-4px;text-anchor:start;fill:#ffffff"
         d="m 359.565,355.79529 11.59668,-11.59668 2.44141,2.4414 0.48828,-0.48828 2.44141,2.44141 -0.48829,0.42725 2.38038,2.4414 -11.59668,11.59668 -2.38038,-2.4414 -1.46484,1.46484 -2.44141,-2.38037 1.46485,-1.46485 -2.44141,-2.4414 z" />
      <path
         id="path4377"
         style="font-style:normal;font-variant:normal;font-weight:300;font-stretch:normal;font-size:62.5px;line-height:0%;font-family:'Open Sans';-inkscape-font-specification:'Open Sans, Light';text-align:start;writing-mode:lr-tb;text-anchor:start;fill:#ffffff"
         d="m 428.34943,358.96912 q 2.86865,0 5.00488,-0.48829 l 0,2.44141 q -2.19727,0.73242 -5.06592,0.73242 -4.39453,0 -6.50024,-2.34985 -2.0752,-2.34985 -2.0752,-7.38525 l 0,-21.42334 -4.91333,0 0,-1.77002 4.91333,-1.37329 1.52588,-7.50733 1.5564,0 0,8.02612 9.7351,0 0,2.62452 -9.7351,0 0,20.99609 q 0,3.8147 1.34277,5.64575 1.34277,1.83106 4.21143,1.83106 z" />
      <path
         id="path4379"
         style="font-style:normal;font-variant:normal;font-weight:300;font-stretch:normal;font-size:62.5px;line-height:0%;font-family:'Open Sans';-inkscape-font-specification:'Open Sans, Light';text-align:start;writing-mode:lr-tb;text-anchor:start;fill:#ffffff"
         d="m 443.85016,361.04431 -12.81738,-33.17261 3.11279,0 8.57544,22.55249 q 1.70898,4.3335 2.56347,7.56836 l 0.18311,0 q 1.25122,-4.15039 2.56348,-7.62939 l 8.57544,-22.49146 3.11279,0 -12.81738,33.17261 -3.05176,0 z" />
      <path
         id="path4381"
         style="font-style:normal;font-variant:normal;font-weight:300;font-stretch:normal;font-size:62.5px;line-height:0%;font-family:'Open Sans';-inkscape-font-specification:'Open Sans, Light';text-align:start;writing-mode:lr-tb;text-anchor:start;fill:#ffffff"
         d="m 464.2337,346.48743 16.93726,-18.61573 3.66211,0 -13.06152,14.16016 14.19067,19.01245 -3.63159,0 -12.60376,-16.75415 -5.43213,4.94385 0,11.8103 -3.02124,0 0,-47.48535 3.02124,0 0,23.80371 -0.21362,9.12476 0.15258,0 z" />
    </g>
  </g>
</svg>
