<svg xmlns="http://www.w3.org/2000/svg" height="64.683" width="121.166"><g style="line-height:0%;-inkscape-font-specification:'Open Sans';text-align:center" font-weight="400" font-size="62.5" font-family="Open Sans" letter-spacing="0" word-spacing="0" text-anchor="start" fill="#fff"><path style="line-height:0%;-inkscape-font-specification:tuerme;text-align:start" d="M52.68 31.851q0-1.455-.235-2.862-.235-1.455-.704-2.862-.47-1.408-1.08-2.769l-5.066 5.068q1.173 3.941 0 7.882l5.02 5.02q2.205-4.457 2.064-9.477zM41.371 14.068q-4.035-1.97-8.493-2.064-2.44-.047-4.88.47-2.392.515-4.597 1.594l5.02 5.068q2.111-.61 4.27-.563.938 0 1.83.14.891.141 1.782.423l5.068-5.068zm-.047 36.55l-5.02-5.02q-3.942 1.173-7.883 0l-5.02 5.02q4.222 2.065 8.961 2.065 4.74 0 8.962-2.064zM19.132 28.427l-5.02-5.068Q12 27.581 12 32.368q0 4.738 2.111 8.96l5.02-5.02q-1.172-3.94 0-7.882zM17.583 12.004l8.915 8.915-1.83 1.876.376.376L23.167 25l-.375-.376-1.877 1.877L12 17.587l1.877-1.876-1.126-1.08 1.877-1.876 1.126 1.126 1.83-1.877zM52.726 17.587l-8.914 8.915-1.877-1.877-.376.376-1.876-1.83.375-.376-1.83-1.876 8.915-8.915 1.83 1.877 1.126-1.126 1.877 1.876-1.126 1.08 1.876 1.876zM47.143 52.683l-8.915-8.914 1.83-1.877-.375-.329 1.876-1.876.376.375 1.877-1.877 8.914 8.915-1.876 1.877 1.126 1.126-1.877 1.83-1.126-1.126-1.83 1.876z" font-family="tuerme" fill="#999"/><path style="line-height:0%;-inkscape-font-specification:tuerme;text-align:start" d="M12 47.1l8.915-8.915 1.877 1.877.375-.375 1.877 1.876-.376.329 1.83 1.877-8.915 8.914-1.83-1.876-1.125 1.126-1.877-1.83 1.126-1.126L12 47.1z" font-family="tuerme" letter-spacing="-4"/><path style="line-height:0%;-inkscape-font-specification:'Open Sans, Light';text-align:start" d="M64.877 49.54q2.205 0 3.847-.376v1.877q-1.689.563-3.894.563-3.378 0-4.997-1.806-1.595-1.807-1.595-5.678V27.652H54.46V26.29l3.777-1.056 1.173-5.77h1.196v6.17h7.484v2.017h-7.484v16.14q0 2.933 1.032 4.34 1.033 1.408 3.238 1.408z" font-weight="300"/><path style="line-height:0%;-inkscape-font-specification:'Open Sans, Light';text-align:start" d="M76.793 51.135l-9.853-25.5h2.393l6.592 17.336q1.314 3.331 1.97 5.818h.141q.962-3.19 1.97-5.865l6.593-17.29h2.393l-9.853 25.501h-2.346zM92.462 39.945l13.02-14.31h2.816L98.257 36.518l10.909 14.616h-2.792l-9.689-12.88-4.176 3.801v9.079h-2.322V14.631h2.322v18.3l-.164 7.014h.117z" font-weight="300"/></g></svg>