<svg xmlns="http://www.w3.org/2000/svg" height="64.683" width="123.113"><g style="line-height:0%;-inkscape-font-specification:'Open Sans';text-align:center" font-weight="400" font-size="62.5" font-family="Open Sans" letter-spacing="0" word-spacing="0" fill="#fff"><path style="line-height:0%;-inkscape-font-specification:tuerme;text-align:start" d="M52.68 31.851q0-1.455-.235-2.862-.235-1.455-.704-2.862-.47-1.408-1.08-2.769l-5.066 5.068q1.173 3.941 0 7.882l5.02 5.02q2.205-4.457 2.064-9.477zM41.371 14.068q-4.035-1.97-8.493-2.064-2.44-.047-4.88.47-2.392.515-4.597 1.594l5.02 5.068q2.111-.61 4.27-.563.938 0 1.83.14.891.141 1.782.423l5.068-5.068zm-.047 36.55l-5.02-5.02q-3.942 1.173-7.883 0l-5.02 5.02q4.222 2.065 8.961 2.065 4.74 0 8.962-2.064zM19.132 28.427l-5.02-5.068Q12 27.581 12 32.368q0 4.738 2.111 8.96l5.02-5.02q-1.172-3.94 0-7.882zm-1.549-16.423l8.915 8.915-1.83 1.876.376.376L23.167 25l-.375-.376-1.877 1.877L12 17.587l1.877-1.876-1.126-1.08 1.877-1.876 1.126 1.126 1.83-1.877z" font-family="tuerme" fill="#999"/><path style="line-height:0%;-inkscape-font-specification:tuerme;text-align:start" d="M52.726 17.587l-8.914 8.915-1.877-1.877-.376.376-1.876-1.83.375-.376-1.83-1.876 8.915-8.915 1.83 1.877 1.126-1.126 1.877 1.876-1.126 1.08 1.876 1.876z" font-family="tuerme"/><path style="line-height:0%;-inkscape-font-specification:tuerme;text-align:start" d="M47.143 52.683l-8.915-8.914 1.83-1.877-.375-.329 1.876-1.876.376.375 1.877-1.877 8.914 8.915-1.876 1.877 1.126 1.126-1.877 1.83-1.126-1.126-1.83 1.876z" font-family="tuerme" fill="#999"/><path style="line-height:0%;-inkscape-font-specification:tuerme;text-align:start" d="M12 47.1l8.915-8.915 1.877 1.877.375-.375 1.877 1.876-.376.329 1.83 1.877-8.915 8.914-1.83-1.876-1.125 1.126-1.877-1.83 1.126-1.126L12 47.1z" font-family="tuerme" letter-spacing="-4" fill="#999"/><path style="line-height:0%;-inkscape-font-specification:'Open Sans, Light';text-align:start" d="M79.234 38.35q0 6.24-3.026 9.759-3.026 3.495-8.352 3.495-3.354 0-5.912-1.619-2.557-1.618-3.917-4.645-1.361-3.026-1.361-6.99 0-6.241 3.026-9.713 3.027-3.496 8.305-3.496 5.255 0 8.234 3.543 3.003 3.519 3.003 9.665zm-20.128 0q0 5.254 2.299 8.21 2.322 2.933 6.545 2.933t6.522-2.933q2.322-2.956 2.322-8.21 0-5.28-2.346-8.188-2.322-2.91-6.545-2.91t-6.522 2.91q-2.275 2.885-2.275 8.187zm26.437 12.785h-2.322v-25.5h2.322v25.5zm-2.65-32.586q0-2.252 1.477-2.252.728 0 1.126.587.423.586.423 1.665 0 1.056-.423 1.666-.398.61-1.126.61-1.478 0-1.478-2.276zm25.921 32.586v-16.54q0-3.847-1.619-5.583-1.619-1.76-5.02-1.76-4.575 0-6.71 2.323-2.111 2.3-2.111 7.484v14.076H91.03V14.631h2.323v11.613l-.118 3.261h.165q1.43-2.3 3.613-3.331 2.181-1.033 5.419-1.033 8.68 0 8.68 9.314v16.68h-2.3z" font-weight="300" letter-spacing="-4"/></g></svg>