<?xml version="1.0" encoding="UTF-8" standalone="no"?>
<svg
   xmlns:dc="http://purl.org/dc/elements/1.1/"
   xmlns:cc="http://creativecommons.org/ns#"
   xmlns:rdf="http://www.w3.org/1999/02/22-rdf-syntax-ns#"
   xmlns:svg="http://www.w3.org/2000/svg"
   xmlns="http://www.w3.org/2000/svg"
   version="1.1"
   id="svg5066"
   viewBox="0 0 145.16519 64.683336"
   height="64.683334"
   width="145.16519">
  <defs
     id="defs5068" />
  <metadata
     id="metadata5071">
    <rdf:RDF>
      <cc:Work
         rdf:about="">
        <dc:format>image/svg+xml</dc:format>
        <dc:type
           rdf:resource="http://purl.org/dc/dcmitype/StillImage" />
        <dc:title></dc:title>
      </cc:Work>
    </rdf:RDF>
  </metadata>
  <g
     transform="translate(-277.74631,-522.05548)"
     id="layer1">
    <g
       transform="translate(249.34978,717.29642)"
       id="g4455">
      <path
         d="m 81.075955,-163.38997 q 0,-1.45452 -0.234598,-2.86211 -0.234599,-1.45451 -0.703797,-2.8621 -0.469197,-1.40759 -1.079153,-2.76827 l -5.067334,5.06734 q 1.172994,3.94126 0,7.88251 l 5.020414,5.02041 q 2.205228,-4.45737 2.064468,-9.47778 z m -11.307659,-17.78259 q -4.035099,-1.97063 -8.492476,-2.06447 -2.439827,-0.0469 -4.879654,0.4692 -2.392907,0.51612 -4.598136,1.59527 l 5.020414,5.06733 q 2.111389,-0.60995 4.269697,-0.56303 0.938395,0 1.829871,0.14076 0.891475,0.14075 1.78295,0.42227 l 5.067334,-5.06733 z m -0.04692,36.55049 -5.020414,-5.02042 q -3.941259,1.173 -7.882518,0 l -5.020414,5.02042 q 4.222778,2.06447 8.961673,2.06447 4.738895,0 8.961673,-2.06447 z m -22.193047,-22.19304 -5.020414,-5.06734 q -2.111388,4.22278 -2.111388,9.0086 0,4.73889 2.111388,8.96166 l 5.020414,-5.02041 q -1.172994,-3.94125 0,-7.88251 z"
         style="font-style:normal;font-variant:normal;font-weight:normal;font-stretch:normal;font-size:medium;line-height:0%;font-family:tuerme;-inkscape-font-specification:tuerme;text-align:start;letter-spacing:0px;word-spacing:0px;text-anchor:start;fill:#83f583;fill-opacity:1;stroke:none;stroke-width:1px;stroke-linecap:butt;stroke-linejoin:miter;stroke-opacity:1"
         id="path4445" />
      <path
         d="m 45.979981,-183.23703 8.914753,8.91476 -1.82987,1.87679 0.375357,0.37536 -1.87679,1.82986 -0.375357,-0.37535 -1.87679,1.87678 -8.914753,-8.91475 1.87679,-1.87679 -1.126075,-1.07915 1.876791,-1.87679 1.126073,1.12607 1.829871,-1.87679 z"
         style="font-style:normal;font-variant:normal;font-weight:normal;font-stretch:normal;font-size:medium;line-height:0%;font-family:tuerme;-inkscape-font-specification:tuerme;text-align:start;letter-spacing:0px;word-spacing:0px;text-anchor:start;fill:#ffffff;fill-opacity:1;stroke:none;stroke-width:1px;stroke-linecap:butt;stroke-linejoin:miter;stroke-opacity:1"
         id="path4447" />
      <path
         d="m 81.122876,-177.65358 -8.914753,8.91475 -1.87679,-1.87678 -0.375359,0.37535 -1.87679,-1.82986 0.375358,-0.37536 -1.82987,-1.87679 8.914753,-8.91476 1.82987,1.87679 1.126074,-1.12607 1.87679,1.87679 -1.126074,1.07915 1.876791,1.87679 z"
         style="font-style:normal;font-variant:normal;font-weight:normal;font-stretch:normal;font-size:medium;line-height:0%;font-family:tuerme;-inkscape-font-specification:tuerme;text-align:start;letter-spacing:0px;word-spacing:0px;text-anchor:start;fill:#83f583;fill-opacity:1;stroke:none;stroke-width:1px;stroke-linecap:butt;stroke-linejoin:miter;stroke-opacity:1"
         id="path4449" />
      <path
         d="m 75.539425,-142.5576 -8.914753,-8.91476 1.82987,-1.87678 -0.375358,-0.32844 1.87679,-1.8768 0.375359,0.37536 1.87679,-1.87678 8.914753,8.91475 -1.876791,1.87678 1.126074,1.12608 -1.87679,1.82987 -1.126074,-1.12607 -1.82987,1.87679 z"
         style="font-style:normal;font-variant:normal;font-weight:normal;font-stretch:normal;font-size:medium;line-height:0%;font-family:tuerme;-inkscape-font-specification:tuerme;text-align:start;letter-spacing:0px;word-spacing:0px;text-anchor:start;fill:#83f583;fill-opacity:1;stroke:none;stroke-width:1px;stroke-linecap:butt;stroke-linejoin:miter;stroke-opacity:1"
         id="path4451" />
      <path
         d="m 40.396531,-148.14105 8.914753,-8.91475 1.87679,1.87678 0.375357,-0.37536 1.87679,1.8768 -0.375357,0.32844 1.82987,1.87678 -8.914753,8.91476 -1.829871,-1.87679 -1.126073,1.12607 -1.876791,-1.82987 1.126075,-1.12608 -1.87679,-1.87678 z"
         style="font-style:normal;font-variant:normal;font-weight:normal;font-stretch:normal;font-size:medium;line-height:0%;font-family:tuerme;-inkscape-font-specification:tuerme;text-align:start;letter-spacing:-4px;word-spacing:0px;text-anchor:start;fill:#83f583;fill-opacity:1;stroke:none;stroke-width:1px;stroke-linecap:butt;stroke-linejoin:miter;stroke-opacity:1"
         id="path4453" />
      <path
         d="m 106.92705,-144.10596 -5.58345,-17.05533 q -0.53957,-1.73603 -1.384133,-5.09079 l -0.140759,0 -0.492658,1.73604 -1.055694,3.40168 -5.67729,17.0084 -2.299068,0 -7.296021,-25.50088 2.486746,0 4.082018,14.77972 q 1.431053,5.48961 1.876791,8.0702 l 0.140759,0 q 1.384133,-5.48961 2.01755,-7.29602 l 5.255011,-15.5539 2.111388,0 4.99695,15.50698 q 1.68912,5.51307 2.06447,7.29602 l 0.14077,0 q 0.18768,-1.52489 1.87678,-8.16404 l 3.89434,-14.63896 2.34599,0 -6.92066,25.50088 -2.43983,0 z"
         style="font-style:normal;font-variant:normal;font-weight:300;font-stretch:normal;font-size:62.5px;line-height:0%;font-family:'Open Sans';-inkscape-font-specification:'Open Sans, Light';text-align:start;letter-spacing:0px;word-spacing:0px;writing-mode:lr-tb;text-anchor:start;fill:#ffffff;fill-opacity:1;stroke:none;stroke-width:1px;stroke-linecap:butt;stroke-linejoin:miter;stroke-opacity:1"
         id="path4455" />
      <path
         d="m 128.48499,-143.63676 q -5.55999,0 -8.68016,-3.42514 -3.0967,-3.42514 -3.0967,-9.59509 0,-6.09956 3.00287,-9.75931 3.00286,-3.6832 8.09365,-3.6832 4.5043,0 7.10834,3.14363 2.60405,3.14362 2.60405,8.53939 l 0,1.8768 -18.36908,0 q 0.0469,5.255 2.43982,8.02327 2.41637,2.76826 6.89721,2.76826 2.18177,0 3.82396,-0.30498 1.66564,-0.30498 4.19931,-1.31375 l 0,2.11139 q -2.1583,0.93839 -3.98818,1.26684 -1.82987,0.35189 -4.03509,0.35189 z m -0.68034,-24.39827 q -3.6832,0 -5.91189,2.43983 -2.22869,2.41637 -2.60404,6.99104 l 15.76503,0 q 0,-4.43391 -1.92371,-6.92066 -1.92371,-2.51021 -5.32539,-2.51021 z"
         style="font-style:normal;font-variant:normal;font-weight:300;font-stretch:normal;font-size:62.5px;line-height:0%;font-family:'Open Sans';-inkscape-font-specification:'Open Sans, Light';text-align:start;letter-spacing:0px;word-spacing:0px;writing-mode:lr-tb;text-anchor:start;fill:#ffffff;fill-opacity:1;stroke:none;stroke-width:1px;stroke-linecap:butt;stroke-linejoin:miter;stroke-opacity:1"
         id="path4457" />
      <path
         d="m 159.26266,-144.10596 0,-16.53921 q 0,-3.84741 -1.61874,-5.58344 -1.61873,-1.7595 -5.02041,-1.7595 -4.57468,0 -6.70953,2.32253 -2.11138,2.29907 -2.11138,7.4837 l 0,14.07592 -2.32253,0 0,-36.50356 2.32253,0 0,11.61264 -0.11731,3.26092 0.16423,0 q 1.43105,-2.29907 3.61281,-3.3313 2.18178,-1.03224 5.41924,-1.03224 8.68015,0 8.68015,9.31357 l 0,16.67997 -2.29906,0 z"
         style="font-style:normal;font-variant:normal;font-weight:300;font-stretch:normal;font-size:62.5px;line-height:0%;font-family:'Open Sans';-inkscape-font-specification:'Open Sans, Light';text-align:start;letter-spacing:0px;word-spacing:0px;writing-mode:lr-tb;text-anchor:start;fill:#ffffff;fill-opacity:1;stroke:none;stroke-width:1px;stroke-linecap:butt;stroke-linejoin:miter;stroke-opacity:1"
         id="path4459" />
    </g>
  </g>
</svg>
