<?xml version="1.0" encoding="UTF-8" standalone="no"?>
<!DOCTYPE svg PUBLIC "-//W3C//DTD SVG 1.1//EN" "http://www.w3.org/Graphics/SVG/1.1/DTD/svg11.dtd">
<svg width="100%" height="100%" viewBox="0 0 250 249" version="1.1" xmlns="http://www.w3.org/2000/svg" xmlns:xlink="http://www.w3.org/1999/xlink" xml:space="preserve" xmlns:serif="http://www.serif.com/" style="fill-rule:evenodd;clip-rule:evenodd;stroke-linejoin:round;stroke-miterlimit:2;">
    <g transform="matrix(1,0,0,1,-813,-11756)">
        <g id="icon-rvb-dunkel" serif:id="icon rvb dunkel" transform="matrix(1,0,0,1,-0.985785,-0.361905)">
            <rect x="813.986" y="11756.4" width="249.263" height="248.999" style="fill:none;"/>
            <clipPath id="_clip1">
                <rect x="813.986" y="11756.4" width="249.263" height="248.999"/>
            </clipPath>
            <g clip-path="url(#_clip1)">
                <g id="g7" transform="matrix(6.12048,0,0,6.12048,740.54,11682.9)">
                    <path id="path5" d="M47.143,52.683L38.228,43.769L40.058,41.892L39.683,41.563L41.559,39.687L41.935,40.062L43.812,38.185L52.726,47.1L50.85,48.977L51.976,50.103L50.099,51.933L48.973,50.807L47.143,52.683Z" style="fill:rgb(255,210,76);fill-opacity:0.95;fill-rule:nonzero;"/>
                    <g id="path3" transform="matrix(0.163386,0,0,0.163386,-120.994,-2089.91)">
                        <path d="M1062.97,12986.2L1062.96,12986.2C1063.54,13006.7 1059.33,13026 1050.33,13044.2L1019.6,13013.5C1024.39,12997.4 1024.39,12981.3 1019.6,12965.3L1050.61,12934.2C1053.1,12939.8 1055.3,12945.4 1057.22,12951.2C1059.14,12956.9 1060.57,12962.8 1061.53,12968.7C1062.49,12974.4 1062.97,12980.3 1062.97,12986.2ZM993.751,12877.4L962.732,12908.4C959.096,12907.2 955.461,12906.4 951.825,12905.8C948.184,12905.2 944.45,12904.9 940.625,12904.9C931.817,12904.8 923.102,12905.9 914.49,12908.4L883.765,12877.4C892.763,12873 902.139,12869.7 911.901,12867.6C921.859,12865.5 931.811,12864.6 941.769,12864.7C959.959,12865.1 977.286,12869.3 993.751,12877.4ZM993.463,13101.1L993.463,13101.1C976.234,13109.5 957.952,13113.7 938.611,13113.7C919.276,13113.7 900.995,13109.5 883.765,13101.1L914.49,13070.4C930.569,13075.1 946.653,13075.1 962.738,13070.4L993.463,13101.1ZM857.631,12965.3C852.851,12981.3 852.851,12997.4 857.631,13013.5L826.906,13044.2C818.295,13027 813.986,13008.7 813.986,12989.4C813.986,12969.9 818.295,12951.5 826.912,12934.2L857.631,12965.3Z" style="fill:rgb(255,210,76);fill-opacity:0.7;"/>
                    </g>
                    <g id="path31" serif:id="path3" transform="matrix(0.163386,0,0,0.163386,-120.994,-2089.91)">
                        <path d="M848.156,12864.7L902.721,12919.3L891.52,12930.8L893.821,12933.1L882.333,12944.3L880.038,12942L868.55,12953.5L813.986,12898.9L825.474,12887.4L818.582,12880.8L830.07,12869.3L836.962,12876.2L848.163,12864.7L848.156,12864.7Z" style="fill:rgb(255,210,76);fill-opacity:0.7;fill-rule:nonzero;"/>
                    </g>
                    <path id="path4" d="M52.726,17.587L43.812,26.502L41.935,24.625L41.559,25.001L39.683,23.171L40.058,22.795L38.228,20.919L47.143,12.004L48.973,13.881L50.099,12.755L51.976,14.631L50.85,15.711L52.726,17.587Z" style="fill:rgb(255,210,76);fill-opacity:0.7;fill-rule:nonzero;"/>
                    <path id="path6" d="M12,47.1L20.915,38.185L22.792,40.062L23.167,39.687L25.044,41.563L24.668,41.892L26.498,43.769L17.583,52.683L15.753,50.807L14.628,51.933L12.751,50.103L13.877,48.977L12,47.1Z" style="fill:rgb(255,210,76);fill-opacity:0.7;fill-rule:nonzero;"/>
                </g>
            </g>
        </g>
    </g>
</svg>
