<?xml version="1.0" encoding="UTF-8" standalone="no"?>
<!DOCTYPE svg PUBLIC "-//W3C//DTD SVG 1.1//EN" "http://www.w3.org/Graphics/SVG/1.1/DTD/svg11.dtd">
<svg width="100%" height="100%" viewBox="0 0 250 249" version="1.1" xmlns="http://www.w3.org/2000/svg" xmlns:xlink="http://www.w3.org/1999/xlink" xml:space="preserve" xmlns:serif="http://www.serif.com/" style="fill-rule:evenodd;clip-rule:evenodd;stroke-linejoin:round;stroke-miterlimit:2;">
    <g transform="matrix(1,0,0,1,-1679,-11318)">
        <g id="icon-tvk-sw-hell" serif:id="icon tvk sw hell" transform="matrix(1,0,0,1,-0.568153,-0.413936)">
            <rect x="1679.57" y="11318.4" width="249.027" height="248.763" style="fill:none;"/>
            <clipPath id="_clip1">
                <rect x="1679.57" y="11318.4" width="249.027" height="248.763"/>
            </clipPath>
            <g clip-path="url(#_clip1)">
                <g transform="matrix(1.35939,0,0,1.35939,-104.988,11181.8)">
                    <g id="g4" transform="matrix(4.49811,0,0,4.49811,1258.78,46.4908)">
                        <g id="path3" transform="matrix(0.16354,0,0,0.16354,-262.677,-2091.94)">
                            <path d="M1928.31,12986.3C1928.31,12980.4 1927.84,12974.6 1926.88,12968.8C1925.92,12962.9 1924.49,12957.1 1922.57,12951.3C1920.66,12945.6 1918.46,12940 1915.97,12934.4L1884.99,12965.4C1889.77,12981.5 1889.77,12997.5 1884.99,13013.6L1915.69,13044.3C1924.68,13026.1 1928.88,13006.8 1928.31,12986.3L1928.31,12986.3Z" style="fill:rgb(8,6,5);fill-opacity:0.7;fill-rule:nonzero;"/>
                        </g>
                        <g id="path31" serif:id="path3" transform="matrix(0.16354,0,0,0.16354,-262.677,-2091.94)">
                            <path d="M1859.16,12877.6C1842.71,12869.6 1825.4,12865.4 1807.23,12865C1797.28,12864.8 1787.34,12865.7 1777.39,12867.9C1767.64,12870 1758.27,12873.2 1749.28,12877.6L1779.98,12908.6C1788.58,12906.1 1797.29,12905 1806.09,12905.1C1809.91,12905.1 1813.64,12905.4 1817.28,12906C1820.91,12906.6 1824.54,12907.4 1828.17,12908.6L1859.16,12877.6Z" style="fill:rgb(8,6,5);fill-opacity:0.7;fill-rule:nonzero;"/>
                        </g>
                        <g id="path32" serif:id="path3" transform="matrix(0.16354,0,0,0.16354,-262.677,-2091.94)">
                            <path d="M1858.88,13101.1L1828.18,13070.4C1812.11,13075.2 1796.04,13075.2 1779.98,13070.4L1749.28,13101.1C1766.5,13109.5 1784.76,13113.7 1804.08,13113.7C1823.4,13113.7 1841.66,13109.5 1858.88,13101.1L1858.88,13101.1Z" style="fill:rgb(8,6,5);fill-opacity:0.7;fill-rule:nonzero;"/>
                        </g>
                        <g id="path33" serif:id="path3" transform="matrix(0.16354,0,0,0.16354,-262.677,-2091.94)">
                            <path d="M1723.18,12965.4L1692.48,12934.4C1683.87,12951.6 1679.57,12970 1679.57,12989.5C1679.57,13008.8 1683.87,13027.1 1692.48,13044.3L1723.17,13013.6C1718.4,12997.5 1718.4,12981.5 1723.17,12965.4L1723.18,12965.4Z" style="fill:rgb(8,6,5);fill-opacity:0.7;fill-rule:nonzero;"/>
                        </g>
                        <g id="path34" serif:id="path3" transform="matrix(0.16354,0,0,0.16354,-262.677,-2091.94)">
                            <path d="M1713.71,12865L1768.22,12919.5L1757.03,12931L1759.33,12933.3L1747.85,12944.4L1745.56,12942.1L1734.08,12953.6L1679.57,12899.1L1691.05,12887.6L1684.16,12881L1695.64,12869.6L1702.52,12876.5L1713.71,12865L1713.71,12865Z" style="fill:rgb(8,6,5);fill-opacity:0.7;fill-rule:nonzero;"/>
                        </g>
                    </g>
                    <g id="g5" transform="matrix(4.49811,0,0,4.49811,1258.78,46.4908)">
                        <path id="path4" d="M52.726,17.587L43.812,26.502L41.935,24.625L41.559,25.001L39.683,23.171L40.058,22.795L38.228,20.919L47.143,12.004L48.973,13.881L50.099,12.755L51.976,14.631L50.85,15.711L52.726,17.587Z" style="fill:rgb(8,6,5);fill-opacity:0.7;fill-rule:nonzero;"/>
                    </g>
                    <g id="g6" transform="matrix(4.49811,0,0,4.49811,1258.78,46.4908)">
                        <path id="path5" d="M47.143,52.683L38.228,43.769L40.058,41.892L39.683,41.563L41.559,39.687L41.935,40.062L43.812,38.185L52.726,47.1L50.85,48.977L51.976,50.103L50.099,51.933L48.973,50.807L47.143,52.683Z" style="fill:rgb(8,6,5);fill-opacity:0.7;fill-rule:nonzero;"/>
                    </g>
                    <g id="g7" transform="matrix(4.49811,0,0,4.49811,1258.78,46.4908)">
                        <path id="path6" d="M12,47.1L20.915,38.185L22.792,40.062L23.167,39.687L25.044,41.563L24.668,41.892L26.498,43.769L17.583,52.683L15.753,50.807L14.628,51.933L12.751,50.103L13.877,48.977L12,47.1Z" style="fill:rgb(8,6,5);fill-rule:nonzero;"/>
                    </g>
                </g>
            </g>
        </g>
    </g>
</svg>
