<?xml version="1.0" encoding="UTF-8" standalone="no"?>
<!DOCTYPE svg PUBLIC "-//W3C//DTD SVG 1.1//EN" "http://www.w3.org/Graphics/SVG/1.1/DTD/svg11.dtd">
<svg width="100%" height="100%" viewBox="0 0 250 249" version="1.1" xmlns="http://www.w3.org/2000/svg" xmlns:xlink="http://www.w3.org/1999/xlink" xml:space="preserve" xmlns:serif="http://www.serif.com/" style="fill-rule:evenodd;clip-rule:evenodd;stroke-linejoin:round;stroke-miterlimit:2;">
    <g transform="matrix(1,0,0,1,-1679,-10881)">
        <g id="icon-oih-sw-hell" serif:id="icon oih sw hell" transform="matrix(1,0,0,1,-0.568153,-0.71408)">
            <rect x="1679.57" y="10881.7" width="249.027" height="248.763" style="fill:none;"/>
            <clipPath id="_clip1">
                <rect x="1679.57" y="10881.7" width="249.027" height="248.763"/>
            </clipPath>
            <g clip-path="url(#_clip1)">
                <g transform="matrix(1.35939,0,0,1.35939,-104.988,10745.1)">
                    <g id="g4" transform="matrix(4.49811,0,0,4.49811,1258.78,46.4908)">
                        <path id="path3" d="M52.68,31.851C52.68,30.881 52.602,29.927 52.445,28.989C52.288,28.019 52.054,27.065 51.741,26.127C51.428,25.188 51.068,24.265 50.661,23.358L45.595,28.426C46.377,31.053 46.377,33.681 45.595,36.308L50.615,41.328C52.085,38.357 52.773,35.198 52.679,31.851L52.68,31.851ZM41.371,14.068C38.681,12.755 35.85,12.067 32.878,12.004C31.251,11.973 29.625,12.129 27.998,12.474C26.403,12.817 24.871,13.349 23.401,14.068L28.421,19.136C29.828,18.729 31.252,18.542 32.691,18.573C33.316,18.573 33.926,18.62 34.521,18.713C35.115,18.807 35.709,18.948 36.303,19.136L41.371,14.068ZM41.324,50.618L36.304,45.598C33.676,46.38 31.048,46.38 28.421,45.598L23.401,50.618C26.216,51.995 29.203,52.683 32.362,52.683C35.522,52.683 38.509,51.995 41.324,50.619L41.324,50.618ZM19.132,28.427L14.112,23.359C12.704,26.174 12,29.177 12,32.368C12,35.527 12.704,38.513 14.111,41.328L19.131,36.308C18.35,33.681 18.35,31.054 19.131,28.426L19.132,28.427ZM17.583,12.004L26.498,20.919L24.668,22.795L25.044,23.171L23.167,25L22.792,24.624L20.915,26.501L12,17.587L13.877,15.711L12.751,14.631L14.628,12.755L15.754,13.881L17.584,12.004L17.583,12.004Z" style="fill:rgb(8,6,5);fill-opacity:0.7;fill-rule:nonzero;"/>
                    </g>
                    <g id="g5" transform="matrix(4.49811,0,0,4.49811,1258.78,46.4908)">
                        <path id="path4" d="M52.726,17.587L43.812,26.502L41.935,24.625L41.559,25.001L39.683,23.171L40.058,22.795L38.228,20.919L47.143,12.004L48.973,13.881L50.099,12.755L51.976,14.631L50.85,15.711L52.726,17.587Z" style="fill:rgb(8,6,5);fill-opacity:0.95;fill-rule:nonzero;"/>
                    </g>
                    <g id="g6" transform="matrix(4.49811,0,0,4.49811,1258.78,46.4908)">
                        <path id="path5" d="M47.143,52.683L38.228,43.769L40.058,41.892L39.683,41.563L41.559,39.687L41.935,40.062L43.812,38.185L52.726,47.1L50.85,48.977L51.976,50.103L50.099,51.933L48.973,50.807L47.143,52.683Z" style="fill:rgb(8,6,5);fill-opacity:0.7;fill-rule:nonzero;"/>
                    </g>
                    <g id="g7" transform="matrix(4.49811,0,0,4.49811,1258.78,46.4908)">
                        <path id="path6" d="M12,47.1L20.915,38.185L22.792,40.062L23.167,39.687L25.044,41.563L24.668,41.892L26.498,43.769L17.583,52.683L15.753,50.807L14.628,51.933L12.751,50.103L13.877,48.977L12,47.1Z" style="fill:rgb(8,6,5);fill-opacity:0.7;fill-rule:nonzero;"/>
                    </g>
                </g>
            </g>
        </g>
    </g>
</svg>
