<?xml version="1.0" encoding="UTF-8" standalone="no"?>
<!DOCTYPE svg PUBLIC "-//W3C//DTD SVG 1.1//EN" "http://www.w3.org/Graphics/SVG/1.1/DTD/svg11.dtd">
<svg width="100%" height="100%" viewBox="0 0 250 249" version="1.1" xmlns="http://www.w3.org/2000/svg" xmlns:xlink="http://www.w3.org/1999/xlink" xml:space="preserve" xmlns:serif="http://www.serif.com/" style="fill-rule:evenodd;clip-rule:evenodd;stroke-linejoin:round;stroke-miterlimit:2;">
    <g transform="matrix(1,0,0,1,-2114,-11318)">
        <g id="icon-tvk-sw-dunkel" serif:id="icon tvk sw dunkel" transform="matrix(1,0,0,1,-0.39007,-0.413936)">
            <rect x="2114.39" y="11318.4" width="249.027" height="248.763" style="fill:none;"/>
            <clipPath id="_clip1">
                <rect x="2114.39" y="11318.4" width="249.027" height="248.763"/>
            </clipPath>
            <g clip-path="url(#_clip1)">
                <g transform="matrix(1.35939,0,0,1.35939,-104.988,11181.8)">
                    <g id="g4" transform="matrix(4.49811,0,0,4.49811,1578.65,46.4908)">
                        <g id="path3" transform="matrix(0.16354,0,0,0.16354,-333.788,-2091.94)">
                            <path d="M2363.14,12986.3C2363.14,12980.4 2362.66,12974.6 2361.7,12968.8C2360.74,12962.9 2359.31,12957.1 2357.39,12951.3C2355.48,12945.6 2353.28,12940 2350.79,12934.4L2319.81,12965.4C2324.6,12981.5 2324.6,12997.5 2319.81,13013.6L2350.51,13044.3C2359.5,13026.1 2363.7,13006.8 2363.13,12986.3L2363.14,12986.3Z" style="fill:white;fill-opacity:0.7;fill-rule:nonzero;"/>
                        </g>
                        <g id="path31" serif:id="path3" transform="matrix(0.16354,0,0,0.16354,-333.788,-2091.94)">
                            <path d="M2293.99,12877.6C2277.54,12869.6 2260.23,12865.4 2242.05,12865C2232.1,12864.8 2222.16,12865.7 2212.21,12867.9C2202.46,12870 2193.09,12873.2 2184.1,12877.6L2214.8,12908.6C2223.4,12906.1 2232.11,12905 2240.91,12905.1C2244.73,12905.1 2248.46,12905.4 2252.1,12906C2255.73,12906.6 2259.36,12907.4 2262.99,12908.6L2293.99,12877.6Z" style="fill:white;fill-opacity:0.7;fill-rule:nonzero;"/>
                        </g>
                        <g id="path32" serif:id="path3" transform="matrix(0.16354,0,0,0.16354,-333.788,-2091.94)">
                            <path d="M2293.7,13101.1L2263,13070.4C2246.93,13075.2 2230.86,13075.2 2214.8,13070.4L2184.1,13101.1C2201.32,13109.5 2219.58,13113.7 2238.9,13113.7C2258.22,13113.7 2276.49,13109.5 2293.7,13101.1L2293.7,13101.1Z" style="fill:white;fill-opacity:0.7;fill-rule:nonzero;"/>
                        </g>
                        <g id="path33" serif:id="path3" transform="matrix(0.16354,0,0,0.16354,-333.788,-2091.94)">
                            <path d="M2158,12965.4L2127.3,12934.4C2118.7,12951.6 2114.39,12970 2114.39,12989.5C2114.39,13008.8 2118.7,13027.1 2127.3,13044.3L2157.99,13013.6C2153.22,12997.5 2153.22,12981.5 2157.99,12965.4L2158,12965.4Z" style="fill:white;fill-opacity:0.7;fill-rule:nonzero;"/>
                        </g>
                        <g id="path34" serif:id="path3" transform="matrix(0.16354,0,0,0.16354,-333.788,-2091.94)">
                            <path d="M2148.53,12865L2203.04,12919.5L2191.85,12931L2194.15,12933.3L2182.67,12944.4L2180.38,12942.1L2168.9,12953.6L2114.39,12899.1L2125.87,12887.6L2118.98,12881L2130.46,12869.6L2137.35,12876.5L2148.53,12865L2148.53,12865Z" style="fill:white;fill-opacity:0.7;fill-rule:nonzero;"/>
                        </g>
                    </g>
                    <g id="g5" transform="matrix(4.49811,0,0,4.49811,1578.65,46.4908)">
                        <path id="path4" d="M52.726,17.587L43.812,26.502L41.935,24.625L41.559,25.001L39.683,23.171L40.058,22.795L38.228,20.919L47.143,12.004L48.973,13.881L50.099,12.755L51.976,14.631L50.85,15.711L52.726,17.587Z" style="fill:white;fill-opacity:0.7;fill-rule:nonzero;"/>
                    </g>
                    <g id="g6" transform="matrix(4.49811,0,0,4.49811,1578.65,46.4908)">
                        <path id="path5" d="M47.143,52.683L38.228,43.769L40.058,41.892L39.683,41.563L41.559,39.687L41.935,40.062L43.812,38.185L52.726,47.1L50.85,48.977L51.976,50.103L50.099,51.933L48.973,50.807L47.143,52.683Z" style="fill:white;fill-opacity:0.7;fill-rule:nonzero;"/>
                    </g>
                    <g id="g7" transform="matrix(4.49811,0,0,4.49811,1578.65,46.4908)">
                        <path id="path6" d="M12,47.1L20.915,38.185L22.792,40.062L23.167,39.687L25.044,41.563L24.668,41.892L26.498,43.769L17.583,52.683L15.753,50.807L14.628,51.933L12.751,50.103L13.877,48.977L12,47.1Z" style="fill:white;fill-opacity:0.95;fill-rule:nonzero;"/>
                    </g>
                </g>
            </g>
        </g>
    </g>
</svg>
