<?xml version="1.0" encoding="UTF-8" standalone="no"?>
<!DOCTYPE svg PUBLIC "-//W3C//DTD SVG 1.1//EN" "http://www.w3.org/Graphics/SVG/1.1/DTD/svg11.dtd">
<svg width="100%" height="100%" viewBox="0 0 250 249" version="1.1" xmlns="http://www.w3.org/2000/svg" xmlns:xlink="http://www.w3.org/1999/xlink" xml:space="preserve" xmlns:serif="http://www.serif.com/" style="fill-rule:evenodd;clip-rule:evenodd;stroke-linejoin:round;stroke-miterlimit:2;">
    <g transform="matrix(1,0,0,1,-1243,-11318)">
        <g id="icon-tvk-invertiert" serif:id="icon tvk invertiert" transform="matrix(1,0,0,1,-0.907044,-0.178391)">
            <rect x="1243.91" y="11318.2" width="249.263" height="248.999" style="fill:none;"/>
            <clipPath id="_clip1">
                <rect x="1243.91" y="11318.2" width="249.263" height="248.999"/>
            </clipPath>
            <g clip-path="url(#_clip1)">
                <g transform="matrix(1.28719,0,0,1,131.361,-1099.97)">
                    <rect x="794.149" y="12327.9" width="334.001" height="429.448" style="fill:rgb(247,111,0);"/>
                </g>
                <g id="g7" transform="matrix(6.12048,0,0,6.12048,1170.46,11244.7)">
                    <path id="path5" d="M47.143,52.683L38.228,43.769L40.058,41.892L39.683,41.563L41.559,39.687L41.935,40.062L43.812,38.185L52.726,47.1L50.85,48.977L51.976,50.103L50.099,51.933L48.973,50.807L47.143,52.683Z" style="fill:white;fill-opacity:0.7;fill-rule:nonzero;"/>
                    <g id="path3" transform="matrix(0.163386,0,0,0.163386,-191.237,-2089.91)">
                        <path d="M1492.89,12986.2C1492.89,12980.3 1492.41,12974.4 1491.45,12968.7C1490.49,12962.8 1489.06,12956.9 1487.14,12951.2C1485.23,12945.4 1483.02,12939.8 1480.53,12934.2L1449.53,12965.3C1454.31,12981.3 1454.31,12997.4 1449.53,13013.5L1480.25,13044.2C1489.25,13026 1493.46,13006.7 1492.88,12986.2L1492.89,12986.2Z" style="fill:white;fill-opacity:0.7;fill-rule:nonzero;"/>
                    </g>
                    <g id="path31" serif:id="path3" transform="matrix(0.163386,0,0,0.163386,-191.237,-2089.91)">
                        <path d="M1423.67,12877.4C1407.21,12869.3 1389.88,12865.1 1371.69,12864.7C1361.73,12864.6 1351.78,12865.5 1341.82,12867.6C1332.06,12869.7 1322.68,12873 1313.69,12877.4L1344.41,12908.4C1353.02,12905.9 1361.74,12904.8 1370.55,12904.9C1374.37,12904.9 1378.11,12905.2 1381.75,12905.8C1385.38,12906.4 1389.02,12907.2 1392.65,12908.4L1423.67,12877.4Z" style="fill:white;fill-opacity:0.7;fill-rule:nonzero;"/>
                    </g>
                    <g id="path32" serif:id="path3" transform="matrix(0.163386,0,0,0.163386,-191.237,-2089.91)">
                        <path d="M1423.38,13101.1L1392.66,13070.4C1376.58,13075.1 1360.49,13075.1 1344.41,13070.4L1313.69,13101.1C1330.92,13109.5 1349.2,13113.7 1368.53,13113.7C1387.87,13113.7 1406.15,13109.5 1423.38,13101.1L1423.38,13101.1Z" style="fill:white;fill-opacity:0.7;fill-rule:nonzero;"/>
                    </g>
                    <g id="path33" serif:id="path3" transform="matrix(0.163386,0,0,0.163386,-191.237,-2089.91)">
                        <path d="M1287.56,12965.3L1256.83,12934.2C1248.22,12951.5 1243.91,12969.9 1243.91,12989.4C1243.91,13008.7 1248.22,13027 1256.83,13044.2L1287.55,13013.5C1282.77,12997.4 1282.77,12981.3 1287.55,12965.3L1287.56,12965.3Z" style="fill:white;fill-opacity:0.7;fill-rule:nonzero;"/>
                    </g>
                    <g id="path34" serif:id="path3" transform="matrix(0.163386,0,0,0.163386,-191.237,-2089.91)">
                        <path d="M1278.08,12864.7L1332.64,12919.3L1321.44,12930.8L1323.74,12933.1L1312.25,12944.3L1309.96,12942L1298.47,12953.5L1243.91,12898.9L1255.39,12887.4L1248.5,12880.8L1259.99,12869.3L1266.88,12876.2L1278.08,12864.7L1278.08,12864.7Z" style="fill:white;fill-opacity:0.7;fill-rule:nonzero;"/>
                    </g>
                    <path id="path4" d="M52.726,17.587L43.812,26.502L41.935,24.625L41.559,25.001L39.683,23.171L40.058,22.795L38.228,20.919L47.143,12.004L48.973,13.881L50.099,12.755L51.976,14.631L50.85,15.711L52.726,17.587Z" style="fill:white;fill-opacity:0.7;fill-rule:nonzero;"/>
                    <path id="path6" d="M12,47.1L20.915,38.185L22.792,40.062L23.167,39.687L25.044,41.563L24.668,41.892L26.498,43.769L17.583,52.683L15.753,50.807L14.628,51.933L12.751,50.103L13.877,48.977L12,47.1Z" style="fill:white;fill-opacity:0.95;fill-rule:nonzero;"/>
                </g>
            </g>
        </g>
    </g>
</svg>
