<?xml version="1.0" encoding="UTF-8" standalone="no"?>
<!DOCTYPE svg PUBLIC "-//W3C//DTD SVG 1.1//EN" "http://www.w3.org/Graphics/SVG/1.1/DTD/svg11.dtd">
<svg width="100%" height="100%" viewBox="0 0 250 249" version="1.1" xmlns="http://www.w3.org/2000/svg" xmlns:xlink="http://www.w3.org/1999/xlink" xml:space="preserve" xmlns:serif="http://www.serif.com/" style="fill-rule:evenodd;clip-rule:evenodd;stroke-linejoin:round;stroke-miterlimit:2;">
    <g transform="matrix(1,0,0,1,-344,-11756)">
        <g id="icon-rvb-hell" serif:id="icon rvb hell" transform="matrix(1,0,0,1,-0.703815,-0.59745)">
            <rect x="344.704" y="11756.6" width="249.027" height="248.763" style="fill:none;"/>
            <clipPath id="_clip1">
                <rect x="344.704" y="11756.6" width="249.027" height="248.763"/>
            </clipPath>
            <g clip-path="url(#_clip1)">
                <g transform="matrix(1.35939,0,0,1.35939,-104.988,11620)">
                    <g id="path3" transform="matrix(0.735623,0,0,0.735623,77.2313,-9363.29)">
                        <path d="M378.842,12865L433.355,12919.5L422.165,12931L424.464,12933.3L412.987,12944.4L410.694,12942.1L399.216,12953.6L344.704,12899.1L356.181,12887.6L349.296,12881L360.773,12869.6L367.658,12876.5L378.848,12865L378.842,12865Z" style="fill:rgb(255,193,7);fill-opacity:0.7;fill-rule:nonzero;"/>
                    </g>
                    <g id="path31" serif:id="path3" transform="matrix(0.735623,0,0,0.735623,77.2313,-9363.29)">
                        <path d="M593.45,12986.3L593.443,12986.3C594.018,13006.8 589.811,13026.1 580.823,13044.3L550.127,13013.6C554.909,12997.5 554.909,12981.5 550.127,12965.4L581.104,12934.4C583.593,12940 585.794,12945.6 587.708,12951.3C589.622,12957.1 591.053,12962.9 592.013,12968.8C592.973,12974.6 593.45,12980.4 593.45,12986.3ZM524.299,12877.6L493.309,12908.6C489.677,12907.4 486.045,12906.6 482.413,12906C478.775,12905.4 475.045,12905.1 471.223,12905.1C462.424,12905 453.717,12906.1 445.113,12908.6L414.417,12877.6C423.406,12873.2 432.774,12870 442.527,12867.9C452.475,12865.7 462.418,12864.8 472.366,12865C490.539,12865.4 507.85,12869.6 524.299,12877.6ZM524.011,13101.1L524.011,13101.1C506.798,13109.5 488.534,13113.7 469.211,13113.7C449.895,13113.7 431.63,13109.5 414.417,13101.1L445.113,13070.4C461.177,13075.2 477.246,13075.2 493.315,13070.4L524.011,13101.1ZM388.308,12965.4C383.532,12981.5 383.532,12997.5 388.308,13013.6L357.612,13044.3C349.009,13027.1 344.704,13008.8 344.704,12989.5C344.704,12970 349.009,12951.6 357.618,12934.4L388.308,12965.4Z" style="fill:rgb(255,193,7);fill-opacity:0.7;"/>
                    </g>
                    <g id="g5" transform="matrix(4.49811,0,0,4.49811,276.826,46.4908)">
                        <path id="path4" d="M52.726,17.587L43.812,26.502L41.935,24.625L41.559,25.001L39.683,23.171L40.058,22.795L38.228,20.919L47.143,12.004L48.973,13.881L50.099,12.755L51.976,14.631L50.85,15.711L52.726,17.587Z" style="fill:rgb(255,193,7);fill-opacity:0.7;fill-rule:nonzero;"/>
                    </g>
                    <g id="g6" transform="matrix(4.49811,0,0,4.49811,276.826,46.4908)">
                        <path id="path5" d="M47.143,52.683L38.228,43.769L40.058,41.892L39.683,41.563L41.559,39.687L41.935,40.062L43.812,38.185L52.726,47.1L50.85,48.977L51.976,50.103L50.099,51.933L48.973,50.807L47.143,52.683Z" style="fill:rgb(255,193,7);fill-opacity:0.95;fill-rule:nonzero;"/>
                    </g>
                    <g id="g7" transform="matrix(4.49811,0,0,4.49811,276.826,46.4908)">
                        <path id="path6" d="M12,47.1L20.915,38.185L22.792,40.062L23.167,39.687L25.044,41.563L24.668,41.892L26.498,43.769L17.583,52.683L15.753,50.807L14.628,51.933L12.751,50.103L13.877,48.977L12,47.1Z" style="fill:rgb(255,193,7);fill-opacity:0.7;fill-rule:nonzero;"/>
                    </g>
                </g>
            </g>
        </g>
    </g>
</svg>
