<svg xmlns="http://www.w3.org/2000/svg" height="64.683" width="140.849"><g style="line-height:0%;-inkscape-font-specification:'Open Sans';text-align:center" font-weight="400" font-size="62.5" font-family="Open Sans" letter-spacing="0" word-spacing="0" text-anchor="start"><path d="M52.68 31.851q0-1.455-.235-2.862-.235-1.455-.704-2.862-.47-1.408-1.08-2.769l-5.066 5.068q1.173 3.941 0 7.882l5.02 5.02q2.205-4.457 2.064-9.477zM41.371 14.068q-4.035-1.97-8.493-2.064-2.44-.047-4.88.47-2.392.515-4.597 1.594l5.02 5.068q2.111-.61 4.27-.563.938 0 1.83.14.891.141 1.782.423l5.068-5.068zm-.047 36.55l-5.02-5.02q-3.942 1.173-7.883 0l-5.02 5.02q4.222 2.065 8.961 2.065 4.74 0 8.962-2.064zM19.132 28.427l-5.02-5.068Q12 27.581 12 32.368q0 4.738 2.111 8.96l5.02-5.02q-1.172-3.94 0-7.882zM17.583 12.004l8.915 8.915-1.83 1.876.376.376L23.167 25l-.375-.376-1.877 1.877L12 17.587l1.877-1.876-1.126-1.08 1.877-1.876 1.126 1.126 1.83-1.877zM52.726 17.587l-8.914 8.915-1.877-1.877-.376.376-1.876-1.83.375-.376-1.83-1.876 8.915-8.915 1.83 1.877 1.126-1.126 1.877 1.876-1.126 1.08 1.876 1.876z" style="line-height:0%;-inkscape-font-specification:tuerme;text-align:start" font-family="tuerme"/><path d="M47.143 52.683l-8.915-8.914 1.83-1.877-.375-.329 1.876-1.876.376.375 1.877-1.877 8.914 8.915-1.876 1.877 1.126 1.126-1.877 1.83-1.126-1.126-1.83 1.876z" style="line-height:0%;-inkscape-font-specification:tuerme;text-align:start" font-family="tuerme" fill="#999"/><path d="M12 47.1l8.915-8.915 1.877 1.877.375-.375 1.877 1.876-.376.329 1.83 1.877-8.915 8.914-1.83-1.876-1.125 1.126-1.877-1.83 1.126-1.126L12 47.1z" style="line-height:0%;-inkscape-font-specification:tuerme;text-align:start" font-family="tuerme" letter-spacing="-4"/><path d="M79.234 38.35q0 6.24-3.026 9.759-3.026 3.495-8.352 3.495-3.354 0-5.912-1.619-2.557-1.618-3.917-4.645-1.361-3.026-1.361-6.99 0-6.241 3.026-9.713 3.027-3.496 8.305-3.496 5.255 0 8.234 3.543 3.003 3.519 3.003 9.665zm-20.128 0q0 5.254 2.299 8.21 2.322 2.933 6.545 2.933t6.522-2.933q2.322-2.956 2.322-8.21 0-5.28-2.345-8.188-2.323-2.91-6.546-2.91-4.223 0-6.522 2.91-2.275 2.885-2.275 8.187zM94.13 51.604q-5.889 0-8.587-4.41h-.164l.07 1.97q.094 1.736.094 3.8v9.713h-2.322V25.634h1.97l.446 3.636h.141q2.627-4.129 8.399-4.129 5.16 0 7.859 3.402 2.721 3.378 2.721 9.853 0 6.288-2.862 9.76-2.839 3.448-7.765 3.448zm-.047-2.064q3.918 0 6.052-2.91 2.159-2.908 2.159-8.14 0-11.237-8.117-11.237-4.458 0-6.546 2.463-2.088 2.44-2.088 7.976v.751q0 5.982 1.994 8.54 2.018 2.557 6.546 2.557zM126.55 51.135v-16.54q0-3.847-1.62-5.583-1.618-1.76-5.02-1.76-4.574 0-6.71 2.323-2.11 2.3-2.11 7.484v14.076h-2.323V14.631h2.322v11.613l-.117 3.261h.164q1.431-2.3 3.613-3.331 2.182-1.033 5.42-1.033 8.68 0 8.68 9.314v16.68h-2.3z" style="line-height:0%;-inkscape-font-specification:'Open Sans, Light';text-align:start" font-weight="300"/></g></svg>