<?xml version="1.0" encoding="UTF-8" standalone="no"?>
<svg
   xmlns:dc="http://purl.org/dc/elements/1.1/"
   xmlns:cc="http://creativecommons.org/ns#"
   xmlns:rdf="http://www.w3.org/1999/02/22-rdf-syntax-ns#"
   xmlns:svg="http://www.w3.org/2000/svg"
   xmlns="http://www.w3.org/2000/svg"
   version="1.1"
   id="svg5094"
   viewBox="0 0 140.849 64.683"
   height="64.682999"
   width="140.849">
  <defs
     id="defs5096" />
  <metadata
     id="metadata5099">
    <rdf:RDF>
      <cc:Work
         rdf:about="">
        <dc:format>image/svg+xml</dc:format>
        <dc:type
           rdf:resource="http://purl.org/dc/dcmitype/StillImage" />
        <dc:title></dc:title>
      </cc:Work>
    </rdf:RDF>
  </metadata>
  <g
     transform="translate(-162.41006,-571.52789)"
     id="layer1">
    <g
       transform="matrix(0.76873322,0,0,0.76873322,-218.68517,345.11612)"
       style="font-style:normal;font-variant:normal;font-weight:normal;font-stretch:normal;font-size:62.5px;line-height:0%;font-family:'Open Sans';-inkscape-font-specification:'Open Sans';text-align:center;letter-spacing:0px;word-spacing:0px;text-anchor:middle;fill:#000000;fill-opacity:1;stroke:none;stroke-width:1px;stroke-linecap:butt;stroke-linejoin:miter;stroke-opacity:1"
       id="g4233">
      <path
         d="m 564.27203,335.95886 q 0,-1.89209 -0.30517,-3.72314 -0.30518,-1.89209 -0.91553,-3.72315 -0.61035,-1.83105 -1.40381,-3.60107 l -6.59179,6.5918 q 1.52587,5.12695 0,10.2539 l 6.53076,6.53076 q 2.86865,-5.79834 2.68554,-12.3291 z m -14.70947,-23.13232 q -5.24902,-2.56348 -11.04736,-2.68555 -3.17383,-0.061 -6.34766,0.61035 -3.11279,0.67139 -5.98144,2.0752 l 6.53076,6.59179 q 2.74658,-0.79345 5.5542,-0.73242 1.2207,0 2.38037,0.18311 1.15967,0.1831 2.31933,0.54931 l 6.5918,-6.59179 z m -0.061,47.54638 -6.53077,-6.53076 q -5.12695,1.52588 -10.2539,0 l -6.53076,6.53076 q 5.49316,2.68555 11.65771,2.68555 6.16455,0 11.65772,-2.68555 z m -28.86963,-28.86962 -6.53076,-6.5918 q -2.74659,5.49316 -2.74659,11.71875 0,6.16455 2.74659,11.65771 l 6.53076,-6.53076 q -1.52588,-5.12695 0,-10.2539 z"
         style="font-style:normal;font-variant:normal;font-weight:normal;font-stretch:normal;line-height:0%;font-family:tuerme;-inkscape-font-specification:tuerme;text-align:start;text-anchor:start"
         id="path4235" />
      <path
         d="m 518.61774,310.14099 11.59668,11.59668 -2.38037,2.44141 0.48828,0.48828 -2.44141,2.38037 -0.48828,-0.48828 -2.44141,2.4414 -11.59668,-11.59668 2.44141,-2.4414 -1.46484,-1.40381 2.4414,-2.44141 1.46485,1.46485 2.38037,-2.44141 z"
         style="font-style:normal;font-variant:normal;font-weight:normal;font-stretch:normal;line-height:0%;font-family:tuerme;-inkscape-font-specification:tuerme;text-align:start;text-anchor:start"
         id="path4237" />
      <path
         d="m 564.33307,317.40417 -11.59668,11.59668 -2.44141,-2.4414 -0.48828,0.48828 -2.4414,-2.38037 0.48828,-0.48828 -2.38037,-2.44141 11.59668,-11.59668 2.38037,2.44141 1.46484,-1.46485 2.44141,2.44141 -1.46485,1.40381 2.44141,2.4414 z"
         style="font-style:normal;font-variant:normal;font-weight:normal;font-stretch:normal;line-height:0%;font-family:tuerme;-inkscape-font-specification:tuerme;text-align:start;text-anchor:start"
         id="path4239" />
      <path
         d="m 557.06989,363.05847 -11.59668,-11.59668 2.38037,-2.4414 -0.48828,-0.42725 2.4414,-2.44141 0.48828,0.48828 2.44141,-2.4414 11.59668,11.59668 -2.44141,2.4414 1.46485,1.46485 -2.44141,2.38037 -1.46484,-1.46484 -2.38037,2.4414 z"
         style="font-style:normal;font-variant:normal;font-weight:normal;font-stretch:normal;line-height:0%;font-family:tuerme;-inkscape-font-specification:tuerme;text-align:start;text-anchor:start;fill:#999999"
         id="path4241" />
      <path
         d="m 511.35455,355.79529 11.59668,-11.59668 2.44141,2.4414 0.48828,-0.48828 2.44141,2.44141 -0.48828,0.42725 2.38037,2.4414 -11.59668,11.59668 -2.38037,-2.4414 -1.46485,1.46484 -2.4414,-2.38037 1.46484,-1.46485 -2.44141,-2.4414 z"
         style="font-style:normal;font-variant:normal;font-weight:normal;font-stretch:normal;line-height:0%;font-family:tuerme;-inkscape-font-specification:tuerme;text-align:start;letter-spacing:-4px;text-anchor:start"
         id="path4243" />
      <path
         d="m 598.81573,344.41223 q 0,8.11768 -3.93676,12.69531 -3.93677,4.54712 -10.86426,4.54712 -4.36401,0 -7.69043,-2.10571 -3.32642,-2.10571 -5.09644,-6.04248 -1.77002,-3.93677 -1.77002,-9.09424 0,-8.11767 3.93677,-12.63428 3.93677,-4.54712 10.80322,-4.54712 6.83594,0 10.71167,4.60816 3.90625,4.57764 3.90625,12.57324 z m -26.18408,0 q 0,6.83594 2.99073,10.68115 3.02124,3.8147 8.5144,3.8147 5.49316,0 8.48389,-3.8147 3.02124,-3.84521 3.02124,-10.68115 0,-6.86645 -3.05176,-10.65063 -3.02124,-3.78418 -8.51441,-3.78418 -5.49316,0 -8.48388,3.78418 -2.96021,3.75366 -2.96021,10.65063 z"
         style="font-style:normal;font-variant:normal;font-weight:300;font-stretch:normal;font-size:62.5px;line-height:0%;font-family:'Open Sans';-inkscape-font-specification:'Open Sans, Light';text-align:start;writing-mode:lr-tb;text-anchor:start"
         id="path4245" />
      <path
         d="m 618.1922,361.65466 q -7.65991,0 -11.16943,-5.7373 l -0.21363,0 0.0916,2.56347 q 0.12207,2.25831 0.12207,4.94385 l 0,12.63428 -3.02124,0 0,-48.18726 2.56347,0 0.57984,4.73023 0.1831,0 q 3.41797,-5.3711 10.92529,-5.3711 6.71387,0 10.22339,4.42505 3.54004,4.39454 3.54004,12.81739 0,8.17871 -3.72314,12.69531 -3.69263,4.48608 -10.10132,4.48608 z m -0.061,-2.68554 q 5.09644,0 7.87354,-3.78418 2.80762,-3.78418 2.80762,-10.5896 0,-14.61792 -10.55909,-14.61792 -5.79833,0 -8.5144,3.20434 -2.71606,3.17383 -2.71606,10.37598 l 0,0.97656 q 0,7.78198 2.59399,11.1084 2.62451,3.32642 8.5144,3.32642 z"
         style="font-style:normal;font-variant:normal;font-weight:300;font-stretch:normal;font-size:62.5px;line-height:0%;font-family:'Open Sans';-inkscape-font-specification:'Open Sans, Light';text-align:start;writing-mode:lr-tb;text-anchor:start"
         id="path4247" />
      <path
         d="m 660.3653,361.04431 0,-21.51489 q 0,-5.00488 -2.10572,-7.26318 -2.10571,-2.28882 -6.53076,-2.28882 -5.95093,0 -8.72803,3.02124 -2.74658,2.99072 -2.74658,9.7351 l 0,18.31055 -3.02124,0 0,-47.48535 3.02124,0 0,15.1062 -0.15259,4.24194 0.21363,0 q 1.86157,-2.99072 4.6997,-4.33349 2.83814,-1.34278 7.04956,-1.34278 11.29151,0 11.29151,12.11548 l 0,21.698 -2.99072,0 z"
         style="font-style:normal;font-variant:normal;font-weight:300;font-stretch:normal;font-size:62.5px;line-height:0%;font-family:'Open Sans';-inkscape-font-specification:'Open Sans, Light';text-align:start;writing-mode:lr-tb;text-anchor:start"
         id="path4249" />
    </g>
  </g>
</svg>
