<?xml version="1.0" encoding="UTF-8" standalone="no"?>
<!-- Created with Inkscape (http://www.inkscape.org/) -->

<svg
   width="28.561993mm"
   height="11.481728mm"
   viewBox="0 0 101.20391 40.683287"
   id="svg2"
   version="1.1"
   xmlns="http://www.w3.org/2000/svg"
   xmlns:svg="http://www.w3.org/2000/svg"
   xmlns:rdf="http://www.w3.org/1999/02/22-rdf-syntax-ns#"
   xmlns:cc="http://creativecommons.org/ns#"
   xmlns:dc="http://purl.org/dc/elements/1.1/">
  <defs
     id="defs4" />
  <metadata
     id="metadata7">
    <rdf:RDF>
      <cc:Work
         rdf:about="">
        <dc:format>image/svg+xml</dc:format>
        <dc:type
           rdf:resource="http://purl.org/dc/dcmitype/StillImage" />
        <dc:title />
      </cc:Work>
    </rdf:RDF>
  </metadata>
  <g
     id="layer1"
     transform="translate(-416.40015,-304.94685)">
    <g
       transform="matrix(0.76873322,0,0,0.76873322,23.304938,66.535047)"
       style="font-style:normal;font-variant:normal;font-weight:normal;font-stretch:normal;font-size:62.5px;line-height:0%;font-family:'Open Sans';-inkscape-font-specification:'Open Sans';text-align:center;letter-spacing:0px;word-spacing:0px;text-anchor:middle;fill:#ffffff;fill-opacity:1;stroke:none;stroke-width:1px;stroke-linecap:butt;stroke-linejoin:miter;stroke-opacity:1"
       id="g6167">
      <path
         d="m 564.27203,335.95886 q 0,-1.89209 -0.30517,-3.72314 -0.30518,-1.89209 -0.91553,-3.72315 -0.61035,-1.83105 -1.40381,-3.60107 l -6.59179,6.5918 q 1.52587,5.12695 0,10.2539 l 6.53076,6.53076 q 2.86865,-5.79834 2.68554,-12.3291 z m -14.70947,-23.13232 q -5.24902,-2.56348 -11.04736,-2.68555 -3.17383,-0.061 -6.34766,0.61035 -3.11279,0.67139 -5.98144,2.0752 l 6.53076,6.59179 q 2.74658,-0.79345 5.5542,-0.73242 1.2207,0 2.38037,0.18311 1.15967,0.1831 2.31933,0.54931 z m -0.061,47.54638 -6.53077,-6.53076 q -5.12695,1.52588 -10.2539,0 l -6.53076,6.53076 q 5.49316,2.68555 11.65771,2.68555 6.16455,0 11.65772,-2.68555 z m -28.86963,-28.86962 -6.53076,-6.5918 q -2.74659,5.49316 -2.74659,11.71875 0,6.16455 2.74659,11.65771 l 6.53076,-6.53076 q -1.52588,-5.12695 0,-10.2539 z"
         style="font-style:normal;font-variant:normal;font-weight:normal;font-stretch:normal;line-height:0%;font-family:tuerme;-inkscape-font-specification:tuerme;text-align:start;text-anchor:start;fill:#f4f27f;fill-opacity:0.941176"
         id="path6169" />
      <path
         d="m 518.61774,310.14099 11.59668,11.59668 -2.38037,2.44141 0.48828,0.48828 -2.44141,2.38037 -0.48828,-0.48828 -2.44141,2.4414 -11.59668,-11.59668 2.44141,-2.4414 -1.46484,-1.40381 2.4414,-2.44141 1.46485,1.46485 z"
         style="font-style:normal;font-variant:normal;font-weight:normal;font-stretch:normal;line-height:0%;font-family:tuerme;-inkscape-font-specification:tuerme;text-align:start;text-anchor:start;fill:#f4f27f;fill-opacity:0.941176"
         id="path6171" />
      <path
         d="m 564.33307,317.40417 -11.59668,11.59668 -2.44141,-2.4414 -0.48828,0.48828 -2.4414,-2.38037 0.48828,-0.48828 -2.38037,-2.44141 11.59668,-11.59668 2.38037,2.44141 1.46484,-1.46485 2.44141,2.44141 -1.46485,1.40381 z"
         style="font-style:normal;font-variant:normal;font-weight:normal;font-stretch:normal;line-height:0%;font-family:tuerme;-inkscape-font-specification:tuerme;text-align:start;text-anchor:start;fill:#f4f27f;fill-opacity:0.941176"
         id="path6173" />
      <path
         d="m 557.06989,363.05847 -11.59668,-11.59668 2.38037,-2.4414 -0.48828,-0.42725 2.4414,-2.44141 0.48828,0.48828 2.44141,-2.4414 11.59668,11.59668 -2.44141,2.4414 1.46485,1.46485 -2.44141,2.38037 -1.46484,-1.46484 z"
         style="font-style:normal;font-variant:normal;font-weight:normal;font-stretch:normal;line-height:0%;font-family:tuerme;-inkscape-font-specification:tuerme;text-align:start;text-anchor:start;fill:#ffffff"
         id="path6175" />
      <path
         d="m 511.35455,355.79529 11.59668,-11.59668 2.44141,2.4414 0.48828,-0.48828 2.44141,2.44141 -0.48828,0.42725 2.38037,2.4414 -11.59668,11.59668 -2.38037,-2.4414 -1.46485,1.46484 -2.4414,-2.38037 1.46484,-1.46485 z"
         style="font-style:normal;font-variant:normal;font-weight:normal;font-stretch:normal;line-height:0%;font-family:tuerme;-inkscape-font-specification:tuerme;text-align:start;letter-spacing:-4px;text-anchor:start;fill:#f4f27f;fill-opacity:0.941176"
         id="path6177" />
      <path
         id="path7"
         style="font-style:normal;font-variant:normal;font-weight:300;font-stretch:normal;font-size:62.5px;line-height:0%;font-family:'Open Sans';-inkscape-font-specification:'Open Sans Light';text-align:start;letter-spacing:-4.21832px;word-spacing:0px;text-anchor:start;white-space:pre;shape-padding:1.09795;fill:#ffffff;fill-opacity:1;stroke:none;stroke-width:9.07087;stroke-linecap:round;stroke-linejoin:miter;stroke-opacity:1;paint-order:fill markers stroke"
         d="m 543.6943,1056.5919 v 47.4856 h 2.35023 l 0.57863,-5.6457 h 0.24526 c 0.8138,1.7904 2.11477,3.2858 3.90514,4.4861 1.79036,1.18 4.0989,1.7692 6.92687,1.7692 3.13313,0 5.73747,-0.7224 7.81267,-2.1669 2.09554,-1.4648 3.67347,-3.4882 4.73141,-6.072 1.05795,-2.6042 1.58587,-5.6244 1.58587,-9.0628 0,-5.6152 -1.17841,-9.8776 -3.53844,-12.7869 -2.33968,-2.9094 -5.66639,-4.3647 -9.97955,-4.3647 -2.95003,0 -5.41297,0.6717 -7.38643,2.0144 -1.97348,1.3428 -3.35695,3.0409 -4.15041,5.0958 h -0.18335 c 0.0407,-0.9156 0.0832,-2.0645 0.12382,-3.448 0.0407,-1.3834 0.0595,-2.655 0.0595,-3.8146 v -13.4895 z m -31.23639,13.7323 c -1.68864,0 -3.19467,0.3065 -4.51711,0.9168 -1.32242,0.6104 -2.45255,1.4341 -3.38842,2.4717 -0.91553,1.0172 -1.6273,2.1661 -2.13592,3.4479 h -0.18336 l -0.30479,-6.2553 h -2.65502 v 33.1722 h 3.11221 v -18.3113 c 0,-1.9124 0.2239,-3.6399 0.67149,-5.1862 0.4476,-1.5462 1.10046,-2.8684 1.95496,-3.967 0.85448,-1.0986 1.8915,-1.9436 3.11221,-2.5336 1.24104,-0.59 2.64336,-0.8858 4.20993,-0.8858 0.79345,0 1.53706,0.051 2.22879,0.1524 0.0792,0.01 0.15923,0.02 0.23812,0.031 l 11.77972,30.7006 h 3.23365 l 12.75601,-33.1722 h -3.29556 l -8.51274,22.6141 c -0.50862,1.3427 -0.97765,2.6437 -1.4049,3.9051 -0.4069,1.2614 -0.7722,2.4021 -1.09772,3.4194 h -0.1524 c -0.28483,-1.0173 -0.6419,-2.1474 -1.06915,-3.3884 -0.4069,-1.2614 -0.87593,-2.573 -1.4049,-3.9361 l -8.51274,-22.6141 h -0.0238 c -0.67139,-0.1832 -1.39376,-0.3245 -2.16688,-0.4263 -0.77311,-0.1017 -1.59683,-0.1548 -2.47167,-0.1548 z m 45.51874,2.5955 c 3.58072,0 6.25457,1.2209 8.02459,3.6623 1.77002,2.4211 2.65502,6.0224 2.65502,10.8034 0,4.6794 -0.95451,8.2889 -2.86695,10.832 -1.89209,2.5228 -4.69087,3.7861 -8.39367,3.7861 -3.74349,0 -6.44917,-1.202 -8.11746,-3.6027 -1.6683,-2.4007 -2.50263,-5.8901 -2.50263,-10.4677 v -0.4881 c 0,-3.1128 0.38653,-5.7466 1.15964,-7.9032 0.77311,-2.1565 1.98336,-3.7934 3.63131,-4.9124 1.64795,-1.1393 3.78563,-1.7097 6.41015,-1.7097 z"
         transform="matrix(1.0003052,0,0,1.0003052,70.999877,-743.40762)" />
    </g>
  </g>
</svg>
