<svg xmlns="http://www.w3.org/2000/svg" height="64.683" width="182.745"><g style="line-height:0%;-inkscape-font-specification:'Open Sans';text-align:center" font-weight="400" font-size="62.5" font-family="Open Sans" letter-spacing="0" word-spacing="0" text-anchor="start" fill="#fff"><path style="line-height:0%;-inkscape-font-specification:tuerme;text-align:start" d="M52.68 31.851q0-1.455-.235-2.862-.235-1.455-.704-2.862-.47-1.408-1.08-2.769l-5.066 5.068q1.173 3.941 0 7.882l5.02 5.02q2.205-4.457 2.064-9.477zM41.371 14.068q-4.035-1.97-8.493-2.064-2.44-.047-4.88.47-2.392.515-4.597 1.594l5.02 5.068q2.111-.61 4.27-.563.938 0 1.83.14.891.141 1.782.423l5.068-5.068zm-.047 36.55l-5.02-5.02q-3.942 1.173-7.883 0l-5.02 5.02q4.222 2.065 8.961 2.065 4.74 0 8.962-2.064zM19.132 28.427l-5.02-5.068Q12 27.581 12 32.368q0 4.738 2.111 8.96l5.02-5.02q-1.172-3.94 0-7.882zM17.583 12.004l8.915 8.915-1.83 1.876.376.376L23.167 25l-.375-.376-1.877 1.877L12 17.587l1.877-1.876-1.126-1.08 1.877-1.876 1.126 1.126 1.83-1.877zM52.726 17.587l-8.914 8.915-1.877-1.877-.376.376-1.876-1.83.375-.376-1.83-1.876 8.915-8.915 1.83 1.877 1.126-1.126 1.877 1.876-1.126 1.08 1.876 1.876zM47.143 52.683l-8.915-8.914 1.83-1.877-.375-.329 1.876-1.876.376.375 1.877-1.877 8.914 8.915-1.876 1.877 1.126 1.126-1.877 1.83-1.126-1.126-1.83 1.876z" font-family="tuerme"/><path style="line-height:0%;-inkscape-font-specification:tuerme;text-align:start" d="M12 47.1l8.915-8.915 1.877 1.877.375-.375 1.877 1.876-.376.329 1.83 1.877-8.915 8.914-1.83-1.876-1.125 1.126-1.877-1.83 1.126-1.126L12 47.1z" font-family="tuerme" letter-spacing="-4"/><path style="line-height:0%;-inkscape-font-specification:'Open Sans, Light';text-align:start" d="M64.877 49.54q2.205 0 3.847-.376v1.877q-1.689.563-3.894.563-3.378 0-4.997-1.806-1.595-1.807-1.595-5.678V27.652H54.46V26.29l3.777-1.056 1.173-5.77h1.196v6.17h7.484v2.017h-7.484v16.14q0 2.933 1.032 4.34 1.033 1.408 3.238 1.408zM73.227 25.634V42.15q0 3.847 1.619 5.607 1.618 1.736 5.02 1.736 4.551 0 6.686-2.3 2.158-2.298 2.158-7.483V25.634h2.3v25.501h-1.971l-.422-3.519h-.141q-2.487 3.988-8.845 3.988-8.703 0-8.703-9.313V25.634h2.299zm1.924-7.085q0-1.079.352-1.548.375-.47 1.126-.47 1.501 0 1.501 2.018t-1.501 2.018q-1.478 0-1.478-2.018zm8.938 0q0-1.079.352-1.548.375-.47 1.126-.47 1.501 0 1.501 2.018t-1.501 2.018q-1.478 0-1.478-2.018zM106.515 25.141q1.619 0 3.472.329l-.446 2.229q-1.595-.4-3.308-.4-3.26 0-5.349 2.769-2.088 2.768-2.088 6.991v14.076h-2.322v-25.5h1.97l.235 4.597h.164q1.572-2.815 3.355-3.941 1.783-1.15 4.317-1.15zM143.932 51.135V34.408q0-3.73-1.455-5.443-1.454-1.712-4.457-1.712-3.918 0-5.795 2.158-1.877 2.158-1.877 6.78v14.944h-2.37v-17.43q0-6.452-5.911-6.452-4.012 0-5.842 2.346-1.83 2.322-1.83 7.46v14.076h-2.322v-25.5h1.924l.492 3.495h.141q1.056-1.9 3.003-2.933 1.947-1.056 4.293-1.056 6.03 0 7.742 4.528h.094q1.243-2.182 3.331-3.355 2.112-1.173 4.786-1.173 4.176 0 6.264 2.23 2.088 2.228 2.088 7.084v16.68h-2.3zM161.712 51.604q-5.56 0-8.68-3.425-3.096-3.425-3.096-9.595 0-6.1 3.002-9.76 3.003-3.683 8.094-3.683 4.504 0 7.108 3.144 2.605 3.144 2.605 8.54V38.7h-18.37q.047 5.255 2.44 8.024 2.417 2.768 6.897 2.768 2.182 0 3.824-.305 1.666-.305 4.2-1.314v2.111q-2.159.939-3.988 1.267-1.83.352-4.036.352zm-.68-24.398q-3.683 0-5.912 2.44-2.228 2.416-2.604 6.99h15.765q0-4.433-1.923-6.92-1.924-2.51-5.326-2.51z" font-weight="300"/></g></svg>