<?xml version="1.0" encoding="UTF-8" standalone="no"?>
<!-- Created with Inkscape (http://www.inkscape.org/) -->

<svg
   width="28.403845mm"
   height="11.481745mm"
   viewBox="0 0 100.64354 40.683347"
   id="svg2"
   version="1.1"
   xmlns="http://www.w3.org/2000/svg"
   xmlns:svg="http://www.w3.org/2000/svg"
   xmlns:rdf="http://www.w3.org/1999/02/22-rdf-syntax-ns#"
   xmlns:cc="http://creativecommons.org/ns#"
   xmlns:dc="http://purl.org/dc/elements/1.1/">
  <defs
     id="defs4" />
  <metadata
     id="metadata7">
    <rdf:RDF>
      <cc:Work
         rdf:about="">
        <dc:format>image/svg+xml</dc:format>
        <dc:type
           rdf:resource="http://purl.org/dc/dcmitype/StillImage" />
        <dc:title />
      </cc:Work>
    </rdf:RDF>
  </metadata>
  <g
     id="layer1"
     transform="translate(-416.40015,61.07243)">
    <g
       id="g4233"
       style="font-style:normal;font-variant:normal;font-weight:normal;font-stretch:normal;font-size:62.5px;line-height:0%;font-family:'Open Sans';-inkscape-font-specification:'Open Sans';text-align:center;letter-spacing:0px;word-spacing:0px;text-anchor:middle;fill:#000000;fill-opacity:1;stroke:none;stroke-width:1px;stroke-linecap:butt;stroke-linejoin:miter;stroke-opacity:1"
       transform="matrix(0.76873322,0,0,0.76873322,23.304939,-299.48424)">
      <path
         id="path4235"
         style="font-style:normal;font-variant:normal;font-weight:normal;font-stretch:normal;line-height:0%;font-family:tuerme;-inkscape-font-specification:tuerme;text-align:start;text-anchor:start"
         d="m 564.27203,335.95886 q 0,-1.89209 -0.30517,-3.72314 -0.30518,-1.89209 -0.91553,-3.72315 -0.61035,-1.83105 -1.40381,-3.60107 l -6.59179,6.5918 q 1.52587,5.12695 0,10.2539 l 6.53076,6.53076 q 2.86865,-5.79834 2.68554,-12.3291 z m -14.70947,-23.13232 q -5.24902,-2.56348 -11.04736,-2.68555 -3.17383,-0.061 -6.34766,0.61035 -3.11279,0.67139 -5.98144,2.0752 l 6.53076,6.59179 q 2.74658,-0.79345 5.5542,-0.73242 1.2207,0 2.38037,0.18311 1.15967,0.1831 2.31933,0.54931 z m -0.061,47.54638 -6.53077,-6.53076 q -5.12695,1.52588 -10.2539,0 l -6.53076,6.53076 q 5.49316,2.68555 11.65771,2.68555 6.16455,0 11.65772,-2.68555 z m -28.86963,-28.86962 -6.53076,-6.5918 q -2.74659,5.49316 -2.74659,11.71875 0,6.16455 2.74659,11.65771 l 6.53076,-6.53076 q -1.52588,-5.12695 0,-10.2539 z" />
      <path
         id="path4237"
         style="font-style:normal;font-variant:normal;font-weight:normal;font-stretch:normal;line-height:0%;font-family:tuerme;-inkscape-font-specification:tuerme;text-align:start;text-anchor:start"
         d="m 518.61774,310.14099 11.59668,11.59668 -2.38037,2.44141 0.48828,0.48828 -2.44141,2.38037 -0.48828,-0.48828 -2.44141,2.4414 -11.59668,-11.59668 2.44141,-2.4414 -1.46484,-1.40381 2.4414,-2.44141 1.46485,1.46485 z" />
      <path
         id="path4239"
         style="font-style:normal;font-variant:normal;font-weight:normal;font-stretch:normal;line-height:0%;font-family:tuerme;-inkscape-font-specification:tuerme;text-align:start;text-anchor:start"
         d="m 564.33307,317.40417 -11.59668,11.59668 -2.44141,-2.4414 -0.48828,0.48828 -2.4414,-2.38037 0.48828,-0.48828 -2.38037,-2.44141 11.59668,-11.59668 2.38037,2.44141 1.46484,-1.46485 2.44141,2.44141 -1.46485,1.40381 z" />
      <path
         id="path4241"
         style="font-style:normal;font-variant:normal;font-weight:normal;font-stretch:normal;line-height:0%;font-family:tuerme;-inkscape-font-specification:tuerme;text-align:start;text-anchor:start;fill:#999999"
         d="m 557.06989,363.05847 -11.59668,-11.59668 2.38037,-2.4414 -0.48828,-0.42725 2.4414,-2.44141 0.48828,0.48828 2.44141,-2.4414 11.59668,11.59668 -2.44141,2.4414 1.46485,1.46485 -2.44141,2.38037 -1.46484,-1.46484 z" />
      <path
         id="path4243"
         style="font-style:normal;font-variant:normal;font-weight:normal;font-stretch:normal;line-height:0%;font-family:tuerme;-inkscape-font-specification:tuerme;text-align:start;letter-spacing:-4px;text-anchor:start"
         d="m 511.35455,355.79529 11.59668,-11.59668 2.44141,2.4414 0.48828,-0.48828 2.44141,2.44141 -0.48828,0.42725 2.38037,2.4414 -11.59668,11.59668 -2.38037,-2.4414 -1.46485,1.46484 -2.4414,-2.38037 1.46484,-1.46485 z" />
      <path
         id="path7-1"
         style="font-style:normal;font-variant:normal;font-weight:300;font-stretch:normal;font-size:62.5px;line-height:0%;font-family:'Open Sans';-inkscape-font-specification:'Open Sans Light';text-align:start;letter-spacing:-4.21832px;word-spacing:0px;text-anchor:start;white-space:pre;shape-padding:1.09795;fill:#000002;fill-opacity:1;stroke:none;stroke-width:9.07364;stroke-linecap:round;stroke-linejoin:miter;stroke-opacity:1;paint-order:fill markers stroke"
         d="m 614.13118,313.54323 v 47.50009 h 2.35094 l 0.57881,-5.64742 h 0.24534 c 0.81404,1.79095 2.11541,3.2868 3.90633,4.48747 1.7909,1.18036 4.10015,1.76974 6.92898,1.76974 3.13409,0 5.73922,-0.72262 7.81506,-2.16756 2.09618,-1.46525 3.67459,-3.48927 4.73285,-6.07385 1.05827,-2.605 1.58635,-5.62612 1.58635,-9.06557 0,-5.61691 -1.17877,-9.88061 -3.53952,-12.7908 -2.34039,-2.91029 -5.66811,-4.36603 -9.98259,-4.36603 -2.95093,0 -5.41462,0.6719 -7.38869,2.01501 -1.97408,1.34321 -3.35797,3.04183 -4.15167,5.09736 h -0.18341 c 0.0407,-0.91588 0.0832,-2.06513 0.12386,-3.44906 0.0407,-1.38382 0.0595,-2.65581 0.0595,-3.81576 v -13.49362 z m -31.24593,13.73649 c -1.68915,0 -3.19564,0.3066 -4.51848,0.91708 -1.32283,0.61059 -2.4533,1.43454 -3.38946,2.47246 -0.91581,1.01751 -1.6278,2.16676 -2.13657,3.44895 h -0.18342 l -0.30488,-6.25721 h -2.65583 v 33.18232 h 3.11316 v -18.31688 c 0,-1.91299 0.22397,-3.64102 0.67169,-5.18779 0.44774,-1.54667 1.1008,-2.86927 1.95556,-3.96821 0.85474,-1.09893 1.89208,-1.94419 3.11316,-2.53437 1.24142,-0.59018 2.64417,-0.88607 4.21122,-0.88607 0.79369,0 1.53753,0.051 2.22947,0.15245 0.0792,0.01 0.15928,0.02 0.23819,0.031 l 11.78331,30.70997 h 3.23464 l 12.7599,-33.18232 h -3.29656 l -8.51534,22.621 c -0.50877,1.34311 -0.97795,2.64451 -1.40533,3.90629 -0.40702,1.26179 -0.77243,2.40284 -1.09805,3.42045 h -0.15245 c -0.28492,-1.01761 -0.6421,-2.14806 -1.06948,-3.38944 -0.40702,-1.26178 -0.87619,-2.57378 -1.40532,-3.9373 l -8.51534,-22.621 h -0.0238 c -0.6716,-0.18326 -1.39419,-0.3246 -2.16754,-0.42643 -0.77335,-0.10173 -1.59732,-0.15485 -2.47243,-0.15485 z m 45.53264,2.5963 c 3.58181,0 6.25648,1.22127 8.02704,3.66341 1.77056,2.42184 2.65583,6.02424 2.65583,10.8067 0,4.68083 -0.95481,8.29143 -2.86783,10.83531 -1.89267,2.52357 -4.6923,3.78725 -8.39623,3.78725 -3.74463,0 -6.45114,-1.20237 -8.11994,-3.6038 -1.66881,-2.40143 -2.50339,-5.8919 -2.50339,-10.47089 v -0.48825 c 0,-3.11375 0.38665,-5.74836 1.15999,-7.90561 0.77335,-2.15716 1.98397,-3.79456 3.63242,-4.9139 1.64845,-1.13965 3.78679,-1.71022 6.41211,-1.71022 z" />
    </g>
  </g>
</svg>
