<svg xmlns="http://www.w3.org/2000/svg" height="64.683" width="145.165"><g style="line-height:0%;-inkscape-font-specification:'Open Sans';text-align:center" font-weight="400" font-size="62.5" font-family="Open Sans" letter-spacing="0" word-spacing="0" text-anchor="start" fill="#fff"><path style="line-height:0%;-inkscape-font-specification:tuerme;text-align:start" d="M52.68 31.851q0-1.455-.235-2.862-.235-1.455-.704-2.862-.47-1.408-1.08-2.769l-5.066 5.068q1.173 3.941 0 7.882l5.02 5.02q2.205-4.457 2.064-9.477zM41.371 14.068q-4.035-1.97-8.493-2.064-2.44-.047-4.88.47-2.392.515-4.597 1.594l5.02 5.068q2.111-.61 4.27-.563.938 0 1.83.14.891.141 1.782.423l5.068-5.068zm-.047 36.55l-5.02-5.02q-3.942 1.173-7.883 0l-5.02 5.02q4.222 2.065 8.961 2.065 4.74 0 8.962-2.064zM19.132 28.427l-5.02-5.068Q12 27.581 12 32.368q0 4.738 2.111 8.96l5.02-5.02q-1.172-3.94 0-7.882z" font-family="tuerme" fill="#999"/><path style="line-height:0%;-inkscape-font-specification:tuerme;text-align:start" d="M17.583 12.004l8.915 8.915-1.83 1.876.376.376L23.167 25l-.375-.376-1.877 1.877L12 17.587l1.877-1.876-1.126-1.08 1.877-1.876 1.126 1.126 1.83-1.877z" font-family="tuerme"/><path style="line-height:0%;-inkscape-font-specification:tuerme;text-align:start" d="M52.726 17.587l-8.914 8.915-1.877-1.877-.376.376-1.876-1.83.375-.376-1.83-1.876 8.915-8.915 1.83 1.877 1.126-1.126 1.877 1.876-1.126 1.08 1.876 1.876zM47.143 52.683l-8.915-8.914 1.83-1.877-.375-.329 1.876-1.876.376.375 1.877-1.877 8.914 8.915-1.876 1.877 1.126 1.126-1.877 1.83-1.126-1.126-1.83 1.876z" font-family="tuerme" fill="#999"/><path style="line-height:0%;-inkscape-font-specification:tuerme;text-align:start" d="M12 47.1l8.915-8.915 1.877 1.877.375-.375 1.877 1.876-.376.329 1.83 1.877-8.915 8.914-1.83-1.876-1.125 1.126-1.877-1.83 1.126-1.126L12 47.1z" font-family="tuerme" letter-spacing="-4" fill="#999"/><path style="line-height:0%;-inkscape-font-specification:'Open Sans, Light';text-align:start" d="M78.53 51.135L72.948 34.08q-.54-1.736-1.384-5.091h-.14l-.493 1.736-1.056 3.402-5.677 17.008h-2.3l-7.296-25.5h2.487l4.082 14.779q1.431 5.49 1.877 8.07h.14q1.385-5.49 2.018-7.296l5.255-15.554h2.112l4.997 15.507q1.689 5.513 2.064 7.296h.14q.189-1.525 1.878-8.164l3.894-14.639h2.346l-6.92 25.501h-2.44zM100.088 51.604q-5.56 0-8.68-3.425-3.096-3.425-3.096-9.595 0-6.1 3.002-9.76 3.003-3.683 8.094-3.683 4.504 0 7.108 3.144 2.605 3.144 2.605 8.54V38.7H90.75q.047 5.255 2.44 8.024 2.417 2.768 6.897 2.768 2.182 0 3.824-.305 1.666-.305 4.2-1.314v2.111q-2.159.939-3.988 1.267-1.83.352-4.036.352zm-.68-24.398q-3.683 0-5.912 2.44-2.228 2.416-2.604 6.99h15.765q0-4.433-1.923-6.92-1.924-2.51-5.326-2.51zM130.866 51.135v-16.54q0-3.847-1.619-5.583-1.618-1.76-5.02-1.76-4.575 0-6.71 2.323-2.11 2.3-2.11 7.484v14.076h-2.323V14.631h2.322v11.613l-.117 3.261h.164q1.431-2.3 3.613-3.331 2.182-1.033 5.419-1.033 8.68 0 8.68 9.314v16.68h-2.299z" font-weight="300"/></g></svg>